<?xml version="1.0" encoding="utf-8"?>
<!-- Generator: Adobe Illustrator 19.2.1, SVG Export Plug-In . SVG Version: 6.00 Build 0)  -->
<svg version="1.1" xmlns="http://www.w3.org/2000/svg" xmlns:xlink="http://www.w3.org/1999/xlink" x="0px" y="0px"
	 viewBox="0 0 1400 980" style="enable-background:new 0 0 1400 980;" xml:space="preserve">
<style type="text/css">
	.st0{fill:#FDBF6F;}
	.st1{fill:#BE73B8;}
	.st2{fill:#DA968D;}
	.st3{fill:#FFF37A;}
	.st4{fill:#268358;}
	.st5{fill:#015235;}
	.st6{opacity:0.5;fill:#FFFFFF;}
	.st7{fill:#FFC152;}
	.st8{fill:#FFAC06;}
	.st9{fill:#FD9F00;}
	.st10{fill:#E17900;}
	.st11{fill:#825E42;}
	.st12{fill:#799C57;}
	.st13{fill:#D1A849;}
	.st14{fill:#B4A04E;}
	.st15{fill:#F99B1C;}
	.st16{fill:#FFFFFF;}
</style>
<g id="layer">
	<polygon class="st0" points="0,0 0,754.7 0,805.6 0,980 1400,980 1400,805.6 1400,749.2 1400,0 	"/>
	<g>
		<g>
			<path class="st1" d="M703.2,602.1c0.2-0.2,0.4-0.2,0.6-0.3c0.2,0,1.4-0.1,1.3-0.4c-0.1-0.2-0.9,0-1.2,0c-0.2,0-0.4,0.1-0.6,0
				c-0.3-0.1-0.5-1.6-2.8-2.5c-0.6-0.2-1.4-0.4-1.9-0.5c-0.7-0.2-1.5,0-2.2,0.1c-0.8,0.2-1.6,0.7-2.2,1.2c-0.4,0.4-0.8,1-1.3,1.2
				c0.1,0.5,0.5,0.9,0.9,1.3c0.3,0.4,0.7,0.7,1,1.1c1,1.3,2.5,1.6,4,1.5c1.4-0.1,3-0.7,3.8-1.8C702.9,602.8,703,602.4,703.2,602.1z
				 M701.2,603.2c-0.2,0.4-0.6,0.7-0.9,0.9c-0.1,0-0.1,0-0.1-0.1c0.2-0.4,0.6-0.7,0.9-1.1c0.2-0.3,0.5-0.6,0.8-0.8c0,0-0.1,0-0.1,0
				c-0.4,0-0.7-0.1-1.1-0.1c-0.2,0-0.4-0.1-0.7-0.1c-0.1,0.2-0.3,0.3-0.5,0.5c-0.2,0.2-0.3,0.5-0.5,0.8c-0.4,0.5-0.9,0.9-1.3,1.4
				c0,0.1-0.1,0-0.1-0.1c0.2-0.5,0.6-0.8,1-1.2c0.5-0.5,0.7-1,1.3-1.5c-0.1,0-0.2,0-0.2,0c-0.7-0.1-1.4-0.2-2.1-0.3
				c-0.3,0.3-0.7,0.6-1,1c-0.3,0.3-0.5,0.8-0.9,1c0,0-0.1,0-0.1-0.1c0.2-0.4,0.6-0.7,0.8-1.1c0.2-0.3,0.5-0.6,0.9-0.8
				c-0.5,0-1.1,0-1.6-0.1c0,0-0.1,0-0.1,0c-0.1,0.2-0.3,0.3-0.4,0.5c-0.2,0.1-0.4,0.4-0.6,0.4c0,0-0.1,0-0.1-0.1
				c0.1-0.2,0.3-0.3,0.4-0.4c0.2-0.1,0.3-0.3,0.5-0.4c-0.5-0.1-1.1-0.2-1.4-0.5c0.5,0,1,0.1,1.5,0.2c-0.1-0.1-0.1-0.2-0.2-0.3
				c-0.1-0.2-0.2-0.3-0.3-0.5c-0.1-0.1-0.2-0.2-0.2-0.4c0,0,0-0.1,0.1-0.1c0.2,0.1,0.3,0.3,0.5,0.6c0.1,0.2,0.3,0.5,0.4,0.7
				c0.2,0,0.4,0,0.6,0.1c0.4,0,0.8,0,1.2,0c-0.1-0.2-0.2-0.3-0.3-0.5c-0.2-0.5-0.7-0.9-0.8-1.5c0-0.1,0.1-0.1,0.1-0.1
				c0.3,0.3,0.5,0.8,0.7,1.1c0.2,0.3,0.3,0.7,0.5,0.9c0.3,0,0.6,0,0.9,0.1c0.5,0.1,1,0.3,1.5,0.3c-0.2-0.3-0.4-0.6-0.6-1
				c-0.3-0.5-0.9-0.9-1.1-1.5c0,0,0-0.1,0.1,0c0.7,0.8,1.2,1.7,1.8,2.5c0.6,0,1.2,0,1.8,0.1c-0.3-0.3-0.5-0.6-0.8-0.9
				c-0.3-0.4-0.6-0.8-0.7-1.3c0-0.1,0.1-0.1,0.1-0.1c0.6,0.7,1.1,1.5,1.6,2.3c0.3,0,0.7,0.1,1,0.1c-0.2,0.2-0.4,0.2-0.6,0.2
				c-0.2,0-0.3,0-0.5,0C701.8,602.4,701.4,602.8,701.2,603.2z"/>
			<path class="st1" d="M772.7,536.4c0.1,0,0.1,0,0.2-0.1c0.1-0.2,0-0.5,0.3-0.5c0.5,0.5,0.5-0.5,0.8-0.7c0.5,0.6,0.6-0.7,1.1-0.3
				c0.2,0.2,0.2,0.6,0.5,0.2c0.2-0.3,0.2-0.7,0.5-1c0.4,0.1,0.4,0.8,0.8,0.2c0.1,0.1,0.1,0.1,0.2,0.2c0.2-0.2,0.1-0.5,0.3-0.7
				c0.4,0.4,0.3-0.6,0.7-0.1c0.1,0.2,0.3,0.5,0.5,0.3c0.2-0.1,0-0.5,0.1-0.6c0.1,0,0.2,0.1,0.3,0.1c0.1-0.2-0.1-0.7,0.1-0.8
				c0.1,0.1,0.2,0.1,0.2,0.1c0.1-0.2,0-0.5,0.3-0.6c0.2,0,0.4,0.3,0.5,0.4c0.2-0.4,0.2-0.8,0.2-1.2c0-0.2-0.1-0.4,0-0.5
				c0.1-0.2,0.2-0.2,0.2-0.4c0-0.3-0.2-0.6-0.5-0.7c-0.3-0.2-0.4-0.7-0.7-0.9c-0.3-0.2-1.5-0.5-1.4-0.9c0.1-0.3,0.5-0.6,0.6-0.9
				c0.2-0.3,0.4-0.6,0.6-0.8c0.1-0.1,0.7-0.6,0.6-0.8c-0.1-0.2-0.3-0.1-0.4,0c-0.2,0.3-0.4,0.6-0.7,0.9c-0.3,0.4-0.6,0.7-0.9,1.1
				c-0.1,0.2-0.2,0.4-0.5,0.4c-0.1,0-0.3-0.9-0.4-0.9c-0.5-0.4-1.1-0.1-1.7-0.4c-0.4-0.2-0.7-0.3-1.1-0.1c-0.3,0.1-0.4,0.3-0.6,0.5
				c-0.2,0.1-1.1,0.4-0.6,0.7c-0.2,0.3-1.1,0.6-0.9,1.1c0.1,0,0.3-0.1,0.4-0.1c0,0.3-0.3,0.4-0.3,0.7c0.1,0,0.2,0,0.2,0
				c0,0.3-1.1,1.1-0.7,1.5c0.2,0.2,0.4-0.1,0.6,0.1c0.2,0.1,0,0.3,0,0.5c-0.1,0.2-0.4,0.5-0.4,0.6c0,0.3,0.4,0,0.5,0
				c0.6-0.1,0,0.8-0.1,1c-0.1,0.1-0.3,0.4-0.2,0.5c0.1,0.1,0.4-0.1,0.6,0c0,0.3-0.4,0.5-0.4,0.8c0.1,0,0.2-0.1,0.4,0
				c0,0.3-0.2,0.4-0.4,0.6c-0.2,0.3,0,0.2,0.3,0.2c-0.1,0.2-0.5,0.5-0.4,0.8c0.1,0,0.3-0.1,0.4-0.1c0,0.3-0.2,0.8-0.3,1.1
				C772.5,537,772.4,536.6,772.7,536.4z M773.2,534.1c0.3-0.6,0.7-1.2,1.1-1.8c0.4-0.5,0.7-1.1,1.1-1.7c0.5-0.6,1.4-1.7,1.5-2.2
				c-0.3,0.5-0.6,0.7-1,1.1c-0.7,0.7-1.4,1.3-2.5,1.7c0.5-0.4,1.3-0.8,1.8-1.3c0.4-0.4,1.4-1.2,1.5-1.8c-0.4,0.1-0.7,0.2-1.3,0.3
				c-0.7,0.1-1.3,0.4-2.2,0.5c1.1-0.3,2.2-0.9,3.4-0.9c-0.5-0.1-0.9-0.3-1.4-0.4c-0.4-0.1-0.8-0.1-1.2-0.2c0.2,0,0.4-0.1,0.6,0
				c0.3,0,0.6,0.1,0.9,0.1c0.3,0.1,0.5,0.2,0.8,0.3c0.3,0.1,0.6,0,0.8,0.1c0.2,0,0.2,0.2,0.3,0.4c0.1,0.2,0.3,0.4,0.4,0.6
				c0.2,0.3,0.5,0.5,0.6,0.8c0.2,0.3,0.6,0.6,0.7,1c-0.6-0.6-1.3-1.3-1.7-2c0,0.5,0.1,1.1,0.1,1.6c0,0.3,0.1,0.6,0.1,1
				c0,0.4,0.1,1.1-0.1,1.4c0-0.6,0-1.3-0.1-1.8c-0.1-0.7,0-1.5-0.1-2.2c-0.1,0.6-0.4,1.2-0.6,1.8c-0.2,0.5-0.4,0.9-0.6,1.4
				c-0.3,0.5-0.4,1.1-0.6,1.6c0.1-0.7,0.4-1.4,0.7-2c0.4-0.8,0.9-1.8,0.9-2.7c-0.2,0.2-0.3,0.5-0.5,0.8c-0.3,0.4-0.6,0.8-0.9,1.2
				c-0.4,0.6-0.9,1.2-1.3,1.8c-0.2,0.3-0.3,0.6-0.5,0.9C773.7,533.5,773.4,533.8,773.2,534.1c-0.1,0.2-0.2,0.3-0.3,0.5
				C773,534.4,773.1,534.3,773.2,534.1z"/>
			<path class="st1" d="M801.3,601.6c0.2-0.3,0.5-0.4,0.8-0.5c0.3-0.1,1.9-0.4,1.7-0.8c-0.2-0.3-1.3,0.2-1.7,0.3
				c-0.2,0.1-0.5,0.2-0.8,0.2c-0.4-0.1-1.1-2-4.4-2.8c-0.8-0.2-2-0.2-2.8-0.3c-1-0.1-2.1,0.3-3,0.7c-1.1,0.4-2,1.3-2.8,2.2
				c-0.5,0.6-0.8,1.5-1.5,2c0.2,0.7,0.9,1.1,1.5,1.5c0.5,0.4,1.1,0.9,1.6,1.3c1.6,1.6,3.8,1.7,6,1.1c1.9-0.5,4-1.6,4.9-3.4
				C801,602.6,801.1,602,801.3,601.6z M798.7,603.6c-0.2,0.5-0.6,1.1-1.1,1.5c-0.1,0.1-0.2,0-0.1-0.1c0.2-0.6,0.7-1.1,1-1.7
				c0.2-0.5,0.5-0.9,0.9-1.3c-0.1,0-0.1,0-0.2,0c-0.5,0.1-1.1,0-1.6,0.1c-0.3,0-0.6,0-1,0c-0.2,0.3-0.3,0.5-0.5,0.8
				c-0.3,0.4-0.3,0.8-0.6,1.2c-0.4,0.8-1.1,1.4-1.5,2.2c-0.1,0.1-0.2,0-0.2-0.1c0.2-0.7,0.7-1.3,1.1-1.8c0.6-0.8,0.8-1.6,1.4-2.3
				c-0.1,0-0.2,0-0.4,0c-1,0.1-2,0-3,0.1c-0.4,0.5-0.8,1-1.1,1.6c-0.3,0.5-0.6,1.2-1.1,1.5c-0.1,0-0.1,0-0.1-0.1
				c0.1-0.6,0.6-1.2,0.9-1.7c0.3-0.5,0.6-1,1-1.3c-0.8,0.1-1.5,0.2-2.3,0.3c-0.1,0-0.1,0-0.2,0c-0.1,0.3-0.3,0.5-0.5,0.7
				c-0.2,0.2-0.5,0.6-0.8,0.7c-0.1,0-0.1,0-0.1-0.1c0-0.3,0.3-0.5,0.5-0.7c0.2-0.2,0.4-0.4,0.6-0.7c-0.7,0-1.6,0-2.1-0.4
				c0.7-0.1,1.4-0.1,2.1-0.1c-0.1-0.1-0.2-0.2-0.3-0.4c-0.2-0.2-0.3-0.4-0.5-0.6c-0.2-0.2-0.3-0.3-0.4-0.5c0-0.1,0-0.1,0.1-0.1
				c0.4,0.1,0.6,0.4,0.8,0.7c0.2,0.3,0.5,0.6,0.7,0.9c0.3,0,0.6,0,0.8,0c0.6,0,1.1-0.2,1.7-0.3c-0.2-0.2-0.3-0.4-0.5-0.7
				c-0.4-0.7-1.2-1.1-1.5-1.9c0-0.1,0.1-0.1,0.1-0.1c0.5,0.4,0.8,0.9,1.3,1.4c0.4,0.4,0.5,0.9,0.9,1.2c0.5-0.1,0.9-0.1,1.3-0.1
				c0.7,0.1,1.4,0.2,2.1,0.1c-0.4-0.4-0.7-0.8-1.1-1.2c-0.6-0.7-1.5-1.1-1.8-1.9c0-0.1,0-0.1,0.1-0.1c1.2,0.9,2.1,2,3.1,3.1
				c0.9-0.2,1.7-0.2,2.6-0.3c-0.5-0.3-0.9-0.7-1.3-1.1c-0.5-0.4-1-1-1.2-1.7c0-0.1,0.1-0.2,0.1-0.1c1,0.8,1.8,1.9,2.8,2.8
				c0.5,0,1-0.1,1.5-0.1c-0.2,0.3-0.5,0.4-0.8,0.5c-0.2,0-0.5,0.1-0.7,0.2C799.4,602.4,798.9,602.9,798.7,603.6z"/>
			<path class="st1" d="M705,567.9c-0.2-0.3,0-0.6,0.1-1c0.1-0.3,0.8-1.9,0.4-1.9c-0.3,0-0.7,1.2-0.8,1.6c-0.1,0.2-0.1,0.6-0.3,0.8
				c-0.3,0.3-2.4-0.3-5.1,2c-0.7,0.6-1.4,1.5-2,2.1c-0.7,0.7-1,1.9-1.3,2.9c-0.3,1.2-0.2,2.5,0.1,3.6c0.2,0.7,0.8,1.6,0.7,2.4
				c0.7,0.2,1.5-0.1,2.2-0.3c0.7-0.2,1.4-0.4,2.1-0.5c2.3-0.4,3.7-2.1,4.6-4.2c0.7-1.8,1.1-4.3,0.2-6.1
				C705.7,568.7,705.2,568.3,705,567.9z M705,571.2c0.3,0.5,0.5,1.2,0.6,1.8c0,0.1-0.1,0.1-0.2,0.1c-0.4-0.6-0.5-1.3-0.8-1.9
				c-0.3-0.5-0.4-1-0.6-1.5c0,0.1-0.1,0.1-0.1,0.2c-0.3,0.5-0.6,0.9-0.9,1.4c-0.2,0.3-0.4,0.5-0.6,0.8c0.1,0.3,0.2,0.6,0.3,0.9
				c0.1,0.5,0.5,0.8,0.7,1.2c0.4,0.8,0.6,1.8,0.9,2.6c0,0.1-0.1,0.2-0.2,0.1c-0.5-0.6-0.6-1.3-0.9-2c-0.3-1-0.9-1.6-1.1-2.6
				c-0.1,0.1-0.1,0.2-0.2,0.3c-0.6,0.9-1.2,1.7-1.8,2.5c0.2,0.6,0.4,1.3,0.6,1.9c0.2,0.6,0.7,1.2,0.6,1.8c0,0.1-0.1,0.1-0.1,0.1
				c-0.4-0.5-0.6-1.2-0.8-1.8c-0.2-0.5-0.4-1.1-0.5-1.6c-0.4,0.7-0.7,1.4-1.1,2.1c0,0-0.1,0.1-0.1,0.1c0.2,0.3,0.3,0.6,0.3,0.9
				c0.1,0.3,0.2,0.8,0.1,1.1c0,0.1-0.1,0.1-0.2,0.1c-0.2-0.2-0.2-0.6-0.3-0.8c0-0.3-0.1-0.6-0.2-0.9c-0.4,0.6-1,1.3-1.6,1.5
				c0.4-0.6,0.8-1.2,1.2-1.8c-0.2,0-0.3,0-0.5,0c-0.3,0-0.5,0-0.8,0c-0.2,0-0.4,0.1-0.7,0c-0.1,0-0.1-0.1,0-0.2
				c0.3-0.3,0.7-0.2,1-0.2c0.4,0,0.8,0,1.2,0c0.2-0.2,0.3-0.5,0.5-0.7c0.3-0.5,0.6-1.1,0.8-1.6c-0.3,0-0.6,0-0.8,0
				c-0.8,0-1.7,0.3-2.5,0.1c-0.1,0-0.1-0.1,0-0.2c0.6-0.2,1.3-0.1,1.9-0.2c0.5-0.1,1,0.1,1.6,0c0.2-0.4,0.5-0.8,0.8-1.1
				c0.5-0.5,1-1.1,1.4-1.7c-0.5,0.1-1.1,0.1-1.7,0.1c-0.9,0.1-1.8,0.6-2.7,0.4c-0.1,0-0.1-0.1,0-0.1c1.5-0.5,3-0.5,4.5-0.6
				c0.4-0.8,0.9-1.5,1.3-2.3c-0.5,0.2-1.2,0.3-1.7,0.4c-0.7,0.1-1.5,0.2-2.1,0c-0.1,0-0.1-0.1,0-0.2c1.3-0.3,2.7-0.4,4-0.6
				c0.3-0.4,0.5-0.8,0.8-1.3c0.2,0.3,0,0.7-0.1,1c-0.1,0.2-0.2,0.4-0.3,0.7C704.5,569.9,704.7,570.6,705,571.2z"/>
			<path class="st1" d="M729,602.8c0.1-0.1,0.2,0,0.4-0.2c0.2-0.3,0.1-0.8,0.4-0.9c0.8,0.8,0.8-0.9,1.3-1.2c0.9,1,1.1-1.2,1.8-0.5
				c0.3,0.3,0.4,1,0.8,0.4c0.4-0.5,0.3-1.2,0.8-1.7c0.7,0.2,0.7,1.4,1.3,0.3c0.1,0.1,0.2,0.2,0.3,0.4c0.4-0.3,0.2-0.8,0.4-1.2
				c0.7,0.7,0.4-1.1,1.1-0.2c0.2,0.3,0.5,0.9,0.9,0.5c0.3-0.2,0.1-0.8,0.2-1.1c0.1,0.1,0.3,0.2,0.4,0.2c0.1-0.4-0.1-1.2,0.2-1.4
				c0.1,0.1,0.3,0.2,0.4,0.2c0.2-0.3,0.1-0.9,0.4-0.9c0.3-0.1,0.7,0.5,0.9,0.6c0.3-0.6,0.4-1.3,0.4-2c0-0.3-0.2-0.6-0.1-0.9
				c0.1-0.3,0.4-0.3,0.4-0.6c0-0.5-0.4-1-0.8-1.2c-0.6-0.3-0.7-1.2-1.2-1.6c-0.5-0.4-2.6-0.8-2.4-1.5c0.1-0.5,0.8-1.1,1-1.5
				c0.3-0.5,0.7-0.9,1.1-1.4c0.2-0.2,1.1-1,1-1.3c-0.1-0.4-0.5-0.1-0.6,0.1c-0.4,0.4-0.7,1-1.1,1.4c-0.5,0.6-1.1,1.2-1.6,1.8
				c-0.2,0.3-0.4,0.7-0.8,0.6c-0.2,0-0.4-1.4-0.6-1.6c-0.9-0.6-1.8-0.1-2.8-0.6c-0.7-0.3-1.1-0.4-1.8-0.1c-0.5,0.2-0.6,0.5-1,0.9
				c-0.3,0.2-1.8,0.7-1,1.2c-0.4,0.5-1.8,1.1-1.4,1.9c0.2,0,0.5-0.2,0.7-0.2c0.1,0.5-0.6,0.7-0.5,1.1c0.1,0,0.3,0,0.4,0
				c0,0.6-1.8,1.8-1.1,2.5c0.3,0.3,0.7-0.1,1,0.1c0.3,0.2,0.1,0.6-0.1,0.8c-0.1,0.3-0.7,0.8-0.7,1c0,0.5,0.6,0.1,0.9,0
				c1-0.2,0,1.3-0.2,1.7c-0.1,0.2-0.5,0.7-0.3,0.9c0.2,0.2,0.7-0.1,1-0.1c0,0.5-0.7,0.8-0.6,1.3c0.2,0,0.4-0.1,0.6-0.1
				c0,0.4-0.4,0.7-0.6,1.1c-0.4,0.6,0,0.4,0.4,0.4c-0.1,0.4-0.8,0.9-0.7,1.3c0.2,0,0.4-0.2,0.7-0.2c0,0.6-0.4,1.3-0.5,1.9
				C728.7,603.7,728.6,603.1,729,602.8z M730,598.9c0.5-1,1.2-2,1.8-3c0.6-0.9,1.1-1.9,1.8-2.8c0.8-1.1,2.3-2.8,2.5-3.7
				c-0.5,0.8-1,1.2-1.7,1.8c-1.2,1.1-2.4,2.2-4.1,2.8c0.9-0.6,2.1-1.4,3-2.2c0.7-0.6,2.4-2,2.6-2.9c-0.7,0.1-1.1,0.3-2.1,0.5
				c-1.1,0.2-2.2,0.7-3.6,0.8c1.9-0.4,3.7-1.5,5.7-1.6c-0.8-0.2-1.5-0.4-2.3-0.7c-0.7-0.2-1.4-0.2-2.1-0.3c0.3,0,0.7-0.1,1-0.1
				c0.5,0,1,0.1,1.5,0.2c0.5,0.1,0.9,0.3,1.4,0.4c0.5,0.1,0.9,0,1.4,0.2c0.3,0.1,0.3,0.3,0.4,0.6c0.2,0.4,0.5,0.6,0.7,1
				c0.4,0.6,0.8,0.8,1.1,1.3c0.4,0.5,0.9,1.1,1.1,1.7c-0.9-1.1-2.2-2.1-2.8-3.4c0,0.9,0.1,1.8,0.1,2.7c0,0.5,0.1,1.1,0.1,1.6
				c0,0.7,0.1,1.8-0.2,2.4c0.1-1-0.1-2.1-0.2-3.1c-0.2-1.2,0-2.4-0.2-3.6c-0.2,1.1-0.7,2-1,3c-0.3,0.8-0.6,1.5-1,2.3
				c-0.4,0.8-0.6,1.8-1.1,2.6c0.2-1.1,0.7-2.3,1.2-3.4c0.6-1.4,1.4-3.1,1.5-4.6c-0.3,0.4-0.5,0.9-0.8,1.3c-0.5,0.7-1,1.4-1.5,2.1
				c-0.7,1-1.5,2-2.1,3c-0.3,0.5-0.6,1.1-0.9,1.6C730.8,597.9,730.3,598.4,730,598.9c-0.1,0.3-0.3,0.5-0.4,0.8
				C729.6,599.4,729.8,599.2,730,598.9z"/>
			<path class="st1" d="M741.9,573.5c0.3-0.2,0.5-0.1,0.8-0.1c0.2,0,1.6,0.4,1.6,0.1c0-0.3-1.1-0.4-1.4-0.5c-0.2,0-0.5-0.1-0.7-0.2
				c-0.3-0.2,0-2-2.2-3.9c-0.5-0.5-1.4-1-2-1.4c-0.7-0.5-1.7-0.6-2.6-0.7c-1-0.1-2.1,0.1-3,0.5c-0.6,0.3-1.3,0.8-1.9,0.9
				c-0.1,0.6,0.3,1.2,0.5,1.8c0.2,0.6,0.5,1.1,0.7,1.7c0.6,1.9,2.2,2.8,4,3.3c1.6,0.4,3.7,0.4,5.1-0.6
				C741.3,574.2,741.6,573.8,741.9,573.5z M739.1,574c-0.4,0.3-0.9,0.6-1.4,0.7c-0.1,0-0.1-0.1-0.1-0.1c0.4-0.4,1-0.5,1.5-0.9
				c0.4-0.3,0.8-0.5,1.2-0.6c-0.1,0-0.1,0-0.2-0.1c-0.4-0.2-0.8-0.4-1.2-0.6c-0.3-0.1-0.5-0.2-0.7-0.4c-0.2,0.1-0.5,0.3-0.7,0.4
				c-0.4,0.2-0.6,0.5-0.9,0.7c-0.7,0.4-1.4,0.7-2.1,1.1c-0.1,0-0.2-0.1-0.1-0.1c0.4-0.5,1-0.7,1.6-0.9c0.8-0.3,1.3-0.9,2-1.2
				c-0.1,0-0.2-0.1-0.3-0.1c-0.8-0.4-1.5-0.8-2.3-1.2c-0.5,0.2-1,0.4-1.5,0.7c-0.4,0.3-0.9,0.7-1.5,0.7c-0.1,0-0.1-0.1-0.1-0.1
				c0.3-0.4,0.9-0.6,1.4-0.9c0.4-0.2,0.8-0.5,1.3-0.6c-0.6-0.3-1.3-0.4-1.8-0.7c0,0-0.1,0-0.1-0.1c-0.2,0.2-0.4,0.3-0.7,0.4
				c-0.3,0.1-0.6,0.3-0.9,0.2c-0.1,0-0.1-0.1-0.1-0.1c0.1-0.2,0.4-0.2,0.7-0.3c0.3-0.1,0.5-0.2,0.8-0.3c-0.5-0.3-1.2-0.7-1.4-1.1
				c0.6,0.2,1.1,0.5,1.6,0.8c0-0.1-0.1-0.3-0.1-0.4c0-0.2-0.1-0.4-0.1-0.7c0-0.2-0.1-0.3-0.1-0.5c0-0.1,0.1-0.1,0.1-0.1
				c0.2,0.2,0.3,0.5,0.3,0.8c0.1,0.3,0.1,0.7,0.2,1c0.2,0.1,0.4,0.2,0.6,0.3c0.4,0.2,0.9,0.3,1.4,0.5c-0.1-0.2-0.1-0.5-0.1-0.7
				c-0.1-0.7-0.4-1.4-0.4-2c0-0.1,0.1-0.1,0.1,0c0.2,0.5,0.3,1.1,0.4,1.6c0.1,0.4,0.1,0.9,0.2,1.3c0.4,0.1,0.7,0.3,1,0.5
				c0.5,0.3,1,0.7,1.6,1c-0.2-0.4-0.2-0.9-0.3-1.4c-0.2-0.7-0.7-1.4-0.6-2.2c0,0,0.1-0.1,0.1,0c0.6,1.2,0.7,2.4,1,3.6
				c0.7,0.2,1.4,0.5,2.1,0.8c-0.2-0.4-0.4-0.9-0.5-1.3c-0.2-0.5-0.4-1.2-0.3-1.8c0-0.1,0.1-0.1,0.1,0c0.4,1,0.6,2.2,0.9,3.3
				c0.4,0.2,0.8,0.3,1.2,0.5c-0.3,0.2-0.6,0.1-0.8,0c-0.2-0.1-0.4-0.1-0.6-0.1C740.2,573.4,739.6,573.6,739.1,574z"/>
		</g>
	</g>
	<g>
		<g>
			<path class="st1" d="M690.3,765c1.2-3.6,1.9-7.5,1.9-11.5c0-20-16.2-36.1-36.2-36.1s-36.2,16.2-36.2,36.1c0,4,0.7,7.9,1.9,11.5
				H690.3z"/>
			<path class="st2" d="M678.8,758.8c0,2.1-0.2,4.2-0.5,6.2h12.1c1.2-3.6,1.9-7.5,1.9-11.5c0-20-16.2-36.1-36.2-36.1
				c-7.3,0-14.1,2.2-19.7,5.9c2.1-0.4,4.2-0.6,6.3-0.6C662.6,722.6,678.8,738.8,678.8,758.8z"/>
		</g>
		<path class="st1" d="M755.1,765c3.3-4.9,5.2-10.7,5.2-17.1c0-16.9-13.7-30.6-30.6-30.6c-16.9,0-30.6,13.7-30.6,30.6
			c0,6.3,1.9,12.2,5.2,17.1H755.1z"/>
		<path class="st1" d="M673.3,765h37.9c11.2-6.5,18.7-18.6,18.7-32.4c0-20.7-16.8-37.5-37.6-37.5c-20.8,0-37.6,16.8-37.6,37.5
			C654.6,746.4,662.1,758.5,673.3,765z"/>
		<path class="st2" d="M715.9,738.1c0,10.6-4.4,20.1-11.4,26.9h6.7c11.2-6.5,18.7-18.6,18.7-32.4c0-20.7-16.8-37.5-37.6-37.5
			c-7.6,0-14.6,2.2-20.5,6.1c2.1-0.4,4.3-0.6,6.6-0.6C699,700.5,715.9,717.3,715.9,738.1z"/>
		<path class="st2" d="M748.9,752.4c0,4.5-1,8.7-2.7,12.6h8.9c3.3-4.9,5.2-10.7,5.2-17.1c0-16.9-13.7-30.6-30.6-30.6
			c-6.2,0-11.9,1.8-16.7,5c1.7-0.3,3.5-0.5,5.4-0.5C735.2,721.8,748.9,735.5,748.9,752.4z"/>
	</g>
</g>
<g id="Layer_2">
	<g>
		<ellipse class="st3" cx="1236.4" cy="177.7" rx="85.4" ry="85.3"/>
	</g>
</g>
<g id="Layer_3">
	<g>
		<g>
			<g>
				<g>
					<polygon class="st4" points="1050.4,247.9 755.1,728.1 1050.9,727.9 1364.1,727.7 					"/>
				</g>
			</g>
		</g>
		<polygon class="st5" points="1175.2,727.8 1364.1,727.7 1050.4,247.9 		"/>
		<polygon class="st6" points="1148.1,397.3 1050.4,247.9 962.6,390.8 990.5,367.3 1010.9,395.1 1055.6,371.7 1091.5,405.9 
			1110.5,378.7 		"/>
	</g>
	<g>
		<g>
			<g>
				<g>
					<polygon class="st4" points="252.7,158.1 0,568.9 0,861.9 253.4,861.7 712.5,861.4 					"/>
				</g>
			</g>
		</g>
		<polygon class="st5" points="435.6,861.6 712.5,861.4 252.7,158.1 		"/>
		<polygon class="st6" points="395.8,377.1 252.7,158.1 123.9,367.5 164.9,333.1 194.7,373.8 260.3,339.6 312.9,389.7 340.7,349.9 
					"/>
	</g>
	<g>
		<g>
			<g>
				<g>
					<polygon class="st4" points="609,69.5 199.2,725.1 609.7,724.8 1044.3,724.5 					"/>
				</g>
			</g>
		</g>
		<polygon class="st5" points="734.1,724.7 1044.3,724.5 609,69.5 		"/>
		<polygon class="st6" points="719.7,236 609,69.5 487.1,264.5 556.8,225.6 644.9,257.1 665.7,221.8 		"/>
	</g>
</g>
<g id="Layer_4">
	<path class="st7" d="M416.1,574.2c-152.5,0-295,18.1-416.1,49.4v354.3h1197.8c10.5-21.8,16-44.3,16-67.3
		C1213.8,724.7,856.6,574.2,416.1,574.2z"/>
	<path class="st8" d="M1400,980v-96.6c-199.7-110-514.3-180.9-868.2-180.9c-193.1,0-374.4,21.1-531.8,58.2V980H1400z"/>
	<path class="st9" d="M1400,980V647.3c-6.2,0.1-12.5,0.3-18.8,0.5C834.3,664.3,636.3,930.5,622.3,980H1400z"/>
	<path class="st10" d="M709,980C693.7,932.8,523,672.8,60.1,663.6c-20.6-0.4-40.6-0.1-60.1,0.9V980H709z"/>
</g>
<g id="Layer_5">
	<g>
		<rect x="378.8" y="555.8" class="st11" width="5.2" height="28.7"/>
		<g>
			<g>
				<polygon class="st12" points="381.4,507.1 360.4,558.7 381.4,558.7 402.4,558.7 				"/>
				<polygon class="st12" points="381.4,492.9 363.9,544.4 381.4,544.4 398.9,544.4 				"/>
				<polygon class="st12" points="381.4,478.6 366.4,530.2 381.4,530.2 396.4,530.2 				"/>
			</g>
		</g>
	</g>
	<g>
		<rect x="495.5" y="577.9" class="st11" width="6.3" height="34.3"/>
		<g>
			<g>
				<polygon class="st12" points="498.6,519.6 473.5,581.4 498.6,581.4 523.8,581.4 				"/>
				<polygon class="st12" points="498.6,502.6 477.7,564.4 498.6,564.4 519.6,564.4 				"/>
				<polygon class="st12" points="498.6,485.5 480.6,547.3 498.6,547.3 516.6,547.3 				"/>
			</g>
		</g>
	</g>
	<g>
		<rect x="550.9" y="596" class="st11" width="4.5" height="24.6"/>
		<g>
			<g>
				<polygon class="st12" points="553.1,554.4 535.1,598.5 553.1,598.5 571.1,598.5 				"/>
				<polygon class="st12" points="553.1,542.2 538.1,586.3 553.1,586.3 568.1,586.3 				"/>
				<polygon class="st12" points="553.1,530 540.3,574.1 553.1,574.1 566,574.1 				"/>
			</g>
		</g>
	</g>
	<g>
		<rect x="912.1" y="654.9" class="st11" width="4.5" height="24.6"/>
		<g>
			<g>
				<polygon class="st12" points="914.3,613.3 896.3,657.4 914.3,657.4 932.3,657.4 				"/>
				<polygon class="st12" points="914.3,601.1 899.3,645.3 914.3,645.3 929.3,645.3 				"/>
				<polygon class="st12" points="914.3,588.9 901.5,633.1 914.3,633.1 927.2,633.1 				"/>
			</g>
		</g>
	</g>
	<g>
		<rect x="953.7" y="688" class="st11" width="4.5" height="24.6"/>
		<g>
			<g>
				<polygon class="st12" points="956,646.3 938,690.5 956,690.5 974,690.5 				"/>
				<polygon class="st12" points="956,634.1 941,678.3 956,678.3 971,678.3 				"/>
				<polygon class="st12" points="956,621.9 943.1,666.1 956,666.1 968.9,666.1 				"/>
			</g>
		</g>
	</g>
	<g>
		<rect x="1000.6" y="694.8" class="st11" width="6" height="32.6"/>
		<g>
			<g>
				<polygon class="st12" points="1003.5,639.4 979.7,698.1 1003.5,698.1 1027.4,698.1 				"/>
				<polygon class="st12" points="1003.5,623.3 983.7,681.9 1003.5,681.9 1023.4,681.9 				"/>
				<polygon class="st12" points="1003.5,607.1 986.5,665.7 1003.5,665.7 1020.6,665.7 				"/>
			</g>
		</g>
	</g>
	<g>
		<rect x="580.5" y="602.2" class="st11" width="4.5" height="24.6"/>
		<g>
			<g>
				<polygon class="st12" points="582.7,560.5 564.8,604.7 582.7,604.7 600.7,604.7 				"/>
				<polygon class="st12" points="582.7,548.3 567.8,592.5 582.7,592.5 597.7,592.5 				"/>
				<polygon class="st12" points="582.7,536.1 569.9,580.3 582.7,580.3 595.6,580.3 				"/>
			</g>
		</g>
	</g>
	<g>
		<rect x="619.2" y="591.1" class="st11" width="4.5" height="24.6"/>
		<g>
			<g>
				<polygon class="st12" points="621.5,549.5 603.5,593.6 621.5,593.6 639.5,593.6 				"/>
				<polygon class="st12" points="621.5,537.3 606.5,581.4 621.5,581.4 636.5,581.4 				"/>
				<polygon class="st12" points="621.5,525.1 608.6,569.3 621.5,569.3 634.3,569.3 				"/>
			</g>
		</g>
	</g>
	<g>
		<rect x="432.9" y="538.8" class="st11" width="8.8" height="48"/>
		<g>
			<g>
				<polygon class="st12" points="437.3,457.3 402.1,543.7 437.3,543.7 472.5,543.7 				"/>
				<polygon class="st12" points="437.3,433.5 408,519.9 437.3,519.9 466.6,519.9 				"/>
				<polygon class="st12" points="437.3,409.6 412.2,496 437.3,496 462.5,496 				"/>
			</g>
		</g>
	</g>
	<g>
		<rect x="518.7" y="634.2" class="st11" width="10.3" height="56"/>
		<g>
			<g>
				<polygon class="st12" points="523.8,539.1 482.8,639.9 523.8,639.9 564.8,639.9 				"/>
				<polygon class="st12" points="523.8,511.3 489.6,612.1 523.8,612.1 558,612.1 				"/>
				<polygon class="st12" points="523.8,483.5 494.5,584.3 523.8,584.3 553.1,584.3 				"/>
			</g>
		</g>
	</g>
	<g>
		<rect x="1081.7" y="663" class="st11" width="10.3" height="56"/>
		<g>
			<g>
				<polygon class="st12" points="1086.8,568 1045.8,668.7 1086.8,668.7 1127.8,668.7 				"/>
				<polygon class="st12" points="1086.8,540.2 1052.6,640.9 1086.8,640.9 1121,640.9 				"/>
				<polygon class="st12" points="1086.8,512.4 1057.4,613.1 1086.8,613.1 1116.1,613.1 				"/>
			</g>
		</g>
	</g>
	<g>
		<rect x="1151.4" y="658.1" class="st11" width="16.4" height="89.3"/>
		<g>
			<g>
				<polygon class="st12" points="1159.6,506.5 1094.2,667.1 1159.6,667.1 1225,667.1 				"/>
				<polygon class="st12" points="1159.6,462.1 1105.1,622.8 1159.6,622.8 1214.1,622.8 				"/>
				<polygon class="st12" points="1159.6,417.8 1112.8,578.4 1159.6,578.4 1206.4,578.4 				"/>
			</g>
		</g>
	</g>
	<g>
		<rect x="99.1" y="599.4" class="st11" width="12" height="65.7"/>
		<g>
			<g>
				<polygon class="st12" points="105.1,487.9 57,606.1 105.1,606.1 153.2,606.1 				"/>
				<polygon class="st12" points="105.1,455.3 65,573.5 105.1,573.5 145.2,573.5 				"/>
				<polygon class="st12" points="105.1,422.7 70.7,540.9 105.1,540.9 139.5,540.9 				"/>
			</g>
		</g>
	</g>
	<g>
		<rect x="30.2" y="603.4" class="st11" width="8.8" height="48"/>
		<g>
			<g>
				<polygon class="st12" points="34.6,521.9 0,606.9 0,608.3 69.8,608.3 				"/>
				<polygon class="st12" points="34.6,498.1 5.3,584.5 34.6,584.5 63.9,584.5 				"/>
				<polygon class="st12" points="34.6,474.2 9.4,560.6 34.6,560.6 59.8,560.6 				"/>
			</g>
		</g>
	</g>
</g>
<g id="Layer_6">
	<g>
		<g>
			<path class="st8" d="M283.2,876.4c0.2-0.3,0.6-0.3,0.9-0.4c0.3-0.1,2.1-0.1,1.9-0.6c-0.1-0.3-1.4-0.1-1.9,0
				c-0.3,0-0.6,0.1-0.9,0.1c-0.4-0.1-0.8-2.3-4.2-3.7c-0.8-0.3-2-0.6-2.9-0.8c-1-0.3-2.2,0-3.2,0.2c-1.2,0.2-2.4,1-3.3,1.8
				c-0.6,0.5-1.1,1.4-1.9,1.8c0.1,0.7,0.8,1.3,1.3,1.9c0.5,0.6,1,1.1,1.5,1.7c1.4,1.9,3.7,2.4,6,2.2c2-0.2,4.5-1,5.7-2.7
				C282.7,877.5,282.8,876.9,283.2,876.4z M280.1,878c-0.3,0.5-0.8,1-1.4,1.3c-0.1,0-0.2,0-0.1-0.1c0.4-0.6,1-1,1.4-1.6
				c0.3-0.5,0.7-0.9,1.1-1.2c-0.1,0-0.1,0-0.2,0c-0.6,0-1.1-0.2-1.7-0.2c-0.3,0-0.7-0.1-1-0.1c-0.2,0.3-0.4,0.5-0.7,0.7
				c-0.4,0.3-0.5,0.8-0.8,1.2c-0.6,0.7-1.4,1.3-2,2.1c-0.1,0.1-0.2,0-0.2-0.1c0.3-0.7,0.9-1.2,1.5-1.7c0.8-0.7,1.1-1.6,1.9-2.2
				c-0.1,0-0.2,0-0.4-0.1c-1.1-0.1-2.1-0.3-3.1-0.4c-0.5,0.5-1,0.9-1.4,1.4c-0.4,0.5-0.8,1.2-1.4,1.4c-0.1,0-0.2,0-0.1-0.1
				c0.2-0.6,0.8-1.1,1.3-1.6c0.4-0.4,0.8-0.9,1.3-1.2c-0.8-0.1-1.6,0-2.4-0.1c-0.1,0-0.1,0-0.2,0c-0.1,0.3-0.4,0.5-0.7,0.7
				c-0.3,0.2-0.6,0.6-1,0.6c-0.1,0-0.1-0.1-0.1-0.1c0.1-0.3,0.4-0.5,0.7-0.6c0.3-0.2,0.5-0.4,0.8-0.6c-0.7-0.1-1.6-0.3-2.1-0.8
				c0.8,0.1,1.5,0.2,2.2,0.3c-0.1-0.1-0.2-0.3-0.3-0.5c-0.1-0.2-0.3-0.5-0.4-0.7c-0.1-0.2-0.3-0.4-0.3-0.6c0-0.1,0-0.1,0.1-0.1
				c0.4,0.1,0.5,0.5,0.7,0.8c0.2,0.4,0.4,0.7,0.6,1.1c0.3,0,0.6,0.1,0.9,0.1c0.6,0.1,1.2,0,1.9,0c-0.2-0.2-0.3-0.5-0.4-0.8
				c-0.3-0.8-1.1-1.4-1.2-2.2c0-0.1,0.1-0.1,0.1-0.1c0.5,0.5,0.7,1.1,1.1,1.7c0.3,0.5,0.4,1,0.8,1.4c0.5,0,1,0,1.4,0.2
				c0.7,0.2,1.5,0.5,2.2,0.5c-0.4-0.4-0.6-1-0.9-1.5c-0.5-0.8-1.4-1.4-1.6-2.3c0-0.1,0.1-0.1,0.1-0.1c1.1,1.1,1.8,2.5,2.7,3.8
				c0.9,0,1.8,0.1,2.7,0.2c-0.4-0.4-0.8-0.9-1.2-1.4c-0.4-0.5-0.9-1.2-1-1.9c0-0.1,0.1-0.2,0.2-0.1c0.9,1,1.6,2.3,2.4,3.4
				c0.5,0,1,0.1,1.5,0.1c-0.2,0.3-0.6,0.3-0.9,0.3c-0.2,0-0.5,0-0.7,0.1C281,876.9,280.5,877.4,280.1,878z"/>
			<path class="st8" d="M391.7,794.8c0.1-0.1,0.2,0,0.3-0.1c0.2-0.2,0.1-0.7,0.4-0.8c0.7,0.8,0.7-0.8,1.2-1.1c0.8,0.9,1-1.1,1.6-0.4
				c0.2,0.2,0.3,0.9,0.7,0.3c0.3-0.5,0.3-1.1,0.7-1.5c0.6,0.2,0.6,1.2,1.1,0.3c0.1,0.1,0.2,0.2,0.2,0.3c0.3-0.3,0.2-0.7,0.4-1.1
				c0.6,0.6,0.4-0.9,1-0.2c0.2,0.2,0.4,0.8,0.8,0.5c0.2-0.2,0.1-0.7,0.2-1c0.1,0.1,0.2,0.1,0.4,0.2c0.1-0.3-0.1-1.1,0.2-1.3
				c0.1,0.1,0.2,0.2,0.3,0.2c0.2-0.3,0.1-0.8,0.4-0.8c0.3-0.1,0.6,0.4,0.8,0.6c0.3-0.6,0.4-1.2,0.3-1.8c0-0.3-0.2-0.6-0.1-0.8
				c0.1-0.2,0.3-0.3,0.3-0.5c0-0.5-0.3-0.9-0.7-1.1c-0.5-0.2-0.6-1.1-1.1-1.4c-0.5-0.3-2.3-0.8-2.2-1.3c0.1-0.5,0.7-1,0.9-1.4
				c0.3-0.5,0.6-0.8,1-1.3c0.2-0.2,1-0.9,0.9-1.1c-0.1-0.4-0.4-0.1-0.6,0.1c-0.3,0.4-0.6,0.9-1,1.3c-0.4,0.6-1,1-1.4,1.6
				c-0.2,0.3-0.3,0.6-0.7,0.6c-0.2,0-0.4-1.3-0.5-1.4c-0.8-0.5-1.7-0.1-2.5-0.5c-0.6-0.3-1-0.4-1.6-0.1c-0.4,0.2-0.6,0.5-0.9,0.8
				c-0.2,0.2-1.6,0.6-0.9,1.1c-0.3,0.4-1.6,0.9-1.3,1.7c0.2,0,0.4-0.2,0.6-0.1c0,0.4-0.5,0.6-0.4,1c0.1,0,0.2,0,0.3,0
				c0,0.5-1.6,1.6-1,2.2c0.2,0.2,0.7-0.1,0.9,0.1c0.2,0.2,0.1,0.5-0.1,0.7c-0.1,0.2-0.7,0.7-0.7,0.9c0,0.4,0.6,0,0.8,0
				c0.9-0.2,0,1.1-0.2,1.5c-0.1,0.2-0.5,0.6-0.3,0.8c0.1,0.2,0.7-0.1,0.9-0.1c0,0.4-0.6,0.7-0.5,1.2c0.2,0,0.4-0.1,0.6-0.1
				c0,0.4-0.4,0.7-0.6,1c-0.3,0.5,0,0.3,0.4,0.4c-0.1,0.4-0.7,0.8-0.6,1.2c0.2,0,0.4-0.2,0.6-0.2c0,0.5-0.4,1.2-0.4,1.7
				C391.4,795.6,391.4,795,391.7,794.8z M392.6,791.3c0.5-0.9,1-1.8,1.7-2.7c0.6-0.8,1-1.7,1.6-2.5c0.7-0.9,2.1-2.5,2.2-3.3
				c-0.4,0.7-0.9,1.1-1.5,1.6c-1.1,1-2.1,1.9-3.7,2.5c0.8-0.5,1.9-1.3,2.7-1.9c0.6-0.6,2.1-1.8,2.3-2.6c-0.6,0.1-1,0.3-1.9,0.5
				c-1,0.2-2,0.6-3.3,0.7c1.7-0.4,3.4-1.3,5.1-1.4c-0.7-0.2-1.4-0.4-2-0.6c-0.6-0.2-1.2-0.2-1.8-0.2c0.3,0,0.6-0.1,0.9-0.1
				c0.4,0,0.9,0.1,1.3,0.2c0.4,0.1,0.8,0.3,1.2,0.4c0.4,0.1,0.8,0,1.2,0.1c0.3,0.1,0.3,0.3,0.4,0.5c0.1,0.4,0.4,0.6,0.6,0.9
				c0.3,0.5,0.7,0.7,1,1.2c0.3,0.5,0.8,0.9,1,1.5c-0.8-1-2-1.9-2.5-3c0,0.8,0.1,1.6,0.1,2.4c0,0.5,0.1,1,0.1,1.5
				c0,0.6,0.1,1.6-0.2,2.1c0-0.9,0-1.9-0.2-2.8c-0.1-1.1,0-2.2-0.1-3.3c-0.2,0.9-0.6,1.8-0.9,2.7c-0.3,0.7-0.6,1.4-0.9,2
				c-0.4,0.8-0.5,1.6-1,2.3c0.2-1,0.7-2.1,1.1-3c0.5-1.2,1.3-2.7,1.3-4.1c-0.3,0.3-0.5,0.8-0.7,1.1c-0.5,0.6-0.9,1.2-1.4,1.9
				c-0.6,0.9-1.3,1.8-1.9,2.7c-0.3,0.5-0.5,1-0.8,1.4C393.3,790.4,392.9,790.9,392.6,791.3c-0.1,0.2-0.3,0.5-0.4,0.7
				C392.2,791.8,392.4,791.5,392.6,791.3z"/>
			<path class="st8" d="M392.7,837.4c0.3-0.5,0.7-0.6,1.2-0.8c0.4-0.1,2.9-0.7,2.5-1.2c-0.3-0.4-2,0.3-2.6,0.4
				c-0.3,0.1-0.8,0.3-1.2,0.3c-0.6-0.1-1.6-3.1-6.6-4.2c-1.2-0.3-2.9-0.4-4.2-0.5c-1.5-0.2-3.1,0.5-4.5,1c-1.6,0.6-3.1,1.9-4.1,3.2
				c-0.7,0.9-1.3,2.3-2.2,2.9c0.4,1,1.4,1.7,2.2,2.3c0.8,0.7,1.7,1.3,2.4,2c2.5,2.4,5.7,2.5,8.9,1.7c2.8-0.7,6-2.4,7.4-5
				C392.3,839,392.4,838.1,392.7,837.4z M388.8,840.4c-0.3,0.8-0.9,1.6-1.6,2.2c-0.1,0.1-0.2,0-0.2-0.1c0.4-0.9,1.1-1.7,1.5-2.6
				c0.3-0.7,0.8-1.4,1.3-2c-0.1,0-0.2,0-0.3,0.1c-0.8,0.1-1.6,0-2.4,0.1c-0.5,0.1-1,0-1.4,0c-0.2,0.4-0.5,0.8-0.8,1.2
				c-0.4,0.6-0.5,1.2-0.8,1.8c-0.7,1.2-1.6,2.2-2.3,3.3c-0.1,0.1-0.3,0-0.3-0.1c0.2-1.1,1-1.9,1.7-2.7c0.9-1.2,1.2-2.4,2.1-3.5
				c-0.2,0-0.4,0-0.5,0c-1.5,0.1-3,0-4.5,0.1c-0.6,0.8-1.2,1.5-1.7,2.3c-0.5,0.8-0.8,1.8-1.6,2.3c-0.1,0-0.2,0-0.2-0.1
				c0.2-0.9,0.9-1.7,1.4-2.5c0.4-0.7,0.9-1.4,1.5-2c-1.1,0.1-2.3,0.4-3.4,0.4c-0.1,0-0.2,0-0.3,0c-0.1,0.4-0.4,0.8-0.7,1.1
				c-0.3,0.4-0.7,0.9-1.2,1.1c-0.1,0-0.2,0-0.2-0.1c0.1-0.4,0.5-0.7,0.8-1c0.3-0.3,0.6-0.7,0.9-1c-1.1,0-2.3-0.1-3.1-0.6
				c1.1-0.1,2.1-0.1,3.2-0.1c-0.2-0.2-0.3-0.4-0.5-0.6c-0.3-0.3-0.5-0.6-0.8-0.9c-0.2-0.3-0.5-0.4-0.6-0.7c0-0.1,0-0.2,0.1-0.2
				c0.5,0.1,0.8,0.6,1.2,1c0.4,0.5,0.7,0.9,1.1,1.4c0.4,0,0.8,0,1.2-0.1c0.8-0.1,1.7-0.3,2.6-0.4c-0.3-0.3-0.5-0.6-0.7-1
				c-0.7-1-1.8-1.7-2.2-2.8c0-0.1,0.1-0.2,0.2-0.1c0.7,0.6,1.3,1.4,1.9,2.1c0.5,0.6,0.8,1.3,1.4,1.8c0.7-0.1,1.4-0.2,2-0.1
				c1,0.1,2.1,0.3,3.2,0.2c-0.6-0.5-1.1-1.2-1.6-1.8c-0.8-1-2.2-1.6-2.7-2.8c0-0.1,0.1-0.2,0.1-0.1c1.8,1.3,3.1,3.1,4.6,4.7
				c1.3-0.2,2.6-0.3,3.9-0.4c-0.7-0.5-1.3-1.1-1.9-1.6c-0.7-0.7-1.6-1.5-1.8-2.5c0-0.1,0.1-0.2,0.2-0.2c1.5,1.3,2.8,2.8,4.1,4.2
				c0.7-0.1,1.4-0.1,2.2-0.2c-0.3,0.5-0.8,0.6-1.2,0.7c-0.3,0.1-0.7,0.2-1,0.3C389.9,838.6,389.2,839.4,388.8,840.4z"/>
			<path class="st8" d="M291.8,836.7c0.4-0.4,0.9-0.4,1.4-0.5c0.4,0,3,0.1,2.8-0.6c-0.2-0.5-2-0.2-2.7-0.2c-0.4,0-0.9,0.1-1.3,0
				c-0.6-0.2-0.9-3.5-5.6-5.9c-1.2-0.6-2.9-1.1-4.1-1.5c-1.4-0.5-3.3-0.3-4.7-0.1c-1.8,0.2-3.5,1.1-5,2.2c-0.9,0.7-1.8,2-2.9,2.4
				c0.1,1.1,1,2,1.6,2.9c0.6,0.9,1.3,1.7,1.9,2.6c1.9,3,5,4,8.5,4c3,0,6.6-0.9,8.7-3.2C291,838.2,291.3,837.3,291.8,836.7z
				 M287.1,838.7c-0.6,0.7-1.3,1.4-2.2,1.8c-0.1,0.1-0.2-0.1-0.2-0.2c0.6-0.8,1.5-1.4,2.2-2.2c0.5-0.6,1.1-1.2,1.8-1.6
				c-0.1,0-0.2,0-0.3,0c-0.8-0.1-1.6-0.4-2.4-0.5c-0.5-0.1-1-0.2-1.4-0.3c-0.3,0.4-0.7,0.7-1.1,1c-0.6,0.5-0.8,1.1-1.3,1.6
				c-1,1-2.2,1.8-3.2,2.8c-0.1,0.1-0.3,0-0.2-0.2c0.5-1,1.5-1.6,2.4-2.3c1.2-0.9,1.8-2.1,3-3c-0.2,0-0.4-0.1-0.5-0.1
				c-1.5-0.3-3-0.7-4.5-1c-0.8,0.6-1.5,1.2-2.3,1.9c-0.7,0.7-1.3,1.6-2.2,1.9c-0.1,0-0.2,0-0.2-0.2c0.4-0.9,1.3-1.5,2-2.2
				c0.6-0.6,1.3-1.2,2-1.6c-1.2-0.2-2.4-0.2-3.5-0.4c-0.1,0-0.2,0-0.3-0.1c-0.2,0.4-0.6,0.7-1,0.9c-0.4,0.3-1,0.8-1.5,0.8
				c-0.1,0-0.2-0.1-0.2-0.2c0.2-0.4,0.6-0.6,1-0.8c0.4-0.2,0.8-0.5,1.2-0.8c-1.1-0.2-2.3-0.6-3-1.4c1.1,0.2,2.2,0.4,3.2,0.7
				c-0.1-0.2-0.3-0.5-0.4-0.7c-0.2-0.4-0.3-0.7-0.5-1.1c-0.2-0.3-0.4-0.5-0.4-0.9c0-0.1,0.1-0.2,0.2-0.1c0.5,0.2,0.7,0.8,0.9,1.3
				c0.2,0.6,0.5,1.1,0.7,1.7c0.4,0.1,0.8,0.2,1.3,0.3c0.8,0.2,1.8,0.2,2.7,0.2c-0.2-0.3-0.4-0.8-0.5-1.2c-0.4-1.2-1.4-2.2-1.5-3.4
				c0-0.1,0.1-0.2,0.2-0.1c0.6,0.7,0.9,1.7,1.4,2.6c0.4,0.7,0.5,1.5,0.9,2.1c0.7,0.1,1.4,0.2,2,0.4c1,0.4,2.1,0.8,3.2,1
				c-0.5-0.7-0.8-1.5-1.1-2.2c-0.6-1.2-1.8-2.1-2-3.5c0-0.1,0.1-0.1,0.2-0.1c1.5,1.8,2.3,3.8,3.4,5.8c1.3,0.1,2.6,0.3,4,0.6
				c-0.6-0.7-1.1-1.4-1.5-2.1c-0.6-0.8-1.2-1.9-1.2-2.9c0-0.1,0.1-0.2,0.2-0.1c1.2,1.6,2,3.5,3,5.2c0.7,0.1,1.5,0.3,2.2,0.3
				c-0.4,0.4-0.9,0.4-1.4,0.4c-0.3,0-0.7,0-1.1,0C288.7,837.2,287.8,837.8,287.1,838.7z"/>
			<path class="st8" d="M326.6,858.6c0.2-0.1,0.4,0,0.6-0.2c0.3-0.4,0.1-1.1,0.6-1.4c1.2,1.3,1.2-1.3,1.9-1.8
				c1.3,1.5,1.6-1.8,2.7-0.7c0.4,0.4,0.6,1.5,1.2,0.5c0.5-0.8,0.5-1.8,1.2-2.5c1.1,0.3,1.1,2.1,1.9,0.5c0.1,0.2,0.3,0.4,0.4,0.5
				c0.5-0.5,0.3-1.2,0.7-1.8c1.1,1,0.6-1.6,1.7-0.3c0.3,0.4,0.7,1.3,1.3,0.8c0.4-0.4,0.1-1.1,0.3-1.6c0.2,0.1,0.4,0.2,0.6,0.3
				c0.2-0.5-0.2-1.8,0.3-2.1c0.2,0.1,0.4,0.3,0.6,0.3c0.3-0.4,0.1-1.3,0.6-1.4c0.5-0.1,1,0.7,1.3,1c0.4-0.9,0.6-1.9,0.5-3
				c0-0.4-0.3-0.9-0.1-1.4c0.1-0.4,0.6-0.4,0.6-0.9c0-0.8-0.6-1.6-1.2-1.9c-0.9-0.4-1-1.8-1.8-2.4c-0.8-0.5-3.9-1.3-3.6-2.2
				c0.2-0.8,1.1-1.6,1.5-2.3c0.4-0.8,1-1.4,1.6-2.1c0.3-0.3,1.6-1.5,1.5-1.9c-0.1-0.6-0.7-0.2-1,0.1c-0.6,0.6-1.1,1.4-1.6,2.1
				c-0.7,0.9-1.6,1.7-2.3,2.7c-0.4,0.5-0.6,1-1.2,1c-0.3,0-0.6-2.1-0.9-2.3c-1.3-0.9-2.8-0.2-4.2-0.9c-1-0.5-1.7-0.6-2.7-0.1
				c-0.7,0.4-0.9,0.8-1.5,1.3c-0.4,0.4-2.7,1-1.5,1.8c-0.6,0.7-2.7,1.6-2.1,2.9c0.4,0,0.7-0.3,1.1-0.2c0.1,0.7-0.8,1-0.7,1.7
				c0.2-0.1,0.4,0,0.6-0.1c0,0.9-2.7,2.7-1.7,3.7c0.4,0.4,1.1-0.2,1.5,0.1c0.4,0.3,0.1,0.8-0.1,1.2c-0.2,0.4-1.1,1.1-1.1,1.5
				c0,0.7,1,0.1,1.4,0c1.6-0.3,0.1,1.9-0.3,2.5c-0.2,0.3-0.8,1-0.5,1.4c0.2,0.3,1.1-0.1,1.5-0.1c-0.1,0.7-1.1,1.2-0.9,2
				c0.3,0,0.6-0.2,0.9-0.1c0,0.7-0.6,1.1-0.9,1.6c-0.5,0.9,0,0.5,0.7,0.6c-0.2,0.6-1.2,1.3-1.1,2c0.3-0.1,0.7-0.3,1-0.3
				c0,0.8-0.6,1.9-0.7,2.8C326.1,860,326,859,326.6,858.6z M328,852.8c0.8-1.5,1.7-3,2.8-4.4c1-1.4,1.7-2.9,2.7-4.2
				c1.2-1.6,3.4-4.2,3.7-5.6c-0.7,1.2-1.6,1.8-2.6,2.7c-1.8,1.6-3.5,3.2-6.2,4.2c1.3-0.9,3.1-2.1,4.5-3.3c1.1-0.9,3.6-2.9,3.8-4.4
				c-1.1,0.2-1.6,0.5-3.1,0.8c-1.7,0.3-3.3,1.1-5.4,1.2c2.8-0.7,5.6-2.2,8.5-2.3c-1.2-0.3-2.3-0.6-3.4-1c-1.1-0.3-2-0.4-3.1-0.4
				c0.5,0,1-0.1,1.5-0.1c0.7,0,1.5,0.2,2.2,0.3c0.7,0.2,1.3,0.5,2.1,0.6c0.7,0.1,1.4,0,2,0.2c0.5,0.1,0.5,0.5,0.7,0.9
				c0.2,0.6,0.7,1,1.1,1.4c0.6,0.8,1.1,1.2,1.6,2c0.5,0.8,1.4,1.6,1.7,2.5c-1.4-1.6-3.3-3.1-4.2-5.1c0,1.3,0.2,2.7,0.2,4
				c0,0.8,0.2,1.6,0.1,2.4c0,1,0.1,2.7-0.3,3.6c0.1-1.5-0.1-3.1-0.3-4.6c-0.2-1.8,0-3.6-0.2-5.4c-0.4,1.6-1,3-1.5,4.5
				c-0.4,1.2-0.9,2.3-1.5,3.4c-0.6,1.3-0.9,2.7-1.6,3.9c0.3-1.7,1.1-3.5,1.8-5.1c0.9-2.1,2.2-4.6,2.2-6.8c-0.5,0.5-0.8,1.3-1.2,1.9
				c-0.8,1-1.5,2.1-2.3,3.1c-1,1.4-2.2,3-3.2,4.5c-0.5,0.8-0.8,1.6-1.4,2.3C329.2,851.3,328.5,852,328,852.8
				c-0.2,0.4-0.4,0.8-0.6,1.2C327.4,853.6,327.7,853.2,328,852.8z"/>
			<path class="st8" d="M345.8,814.9c0.4-0.2,0.8-0.1,1.2-0.1c0.4,0,2.4,0.7,2.4,0.1c0-0.4-1.6-0.6-2.1-0.7c-0.3-0.1-0.8-0.1-1-0.3
				c-0.4-0.3,0-3-3.3-5.9c-0.8-0.7-2.1-1.5-3-2.1c-1-0.7-2.6-0.9-3.8-1c-1.5-0.2-3.1,0.2-4.5,0.8c-0.9,0.4-1.9,1.2-2.9,1.3
				c-0.1,0.9,0.4,1.8,0.7,2.6c0.3,0.8,0.7,1.6,1,2.5c0.9,2.8,3.3,4.2,6,4.9c2.4,0.6,5.5,0.6,7.7-0.8
				C344.9,815.9,345.3,815.3,345.8,814.9z M341.6,815.5c-0.6,0.5-1.4,0.8-2.1,1c-0.1,0-0.2-0.1-0.1-0.2c0.7-0.6,1.5-0.8,2.2-1.3
				c0.5-0.4,1.2-0.7,1.8-1c-0.1,0-0.2,0-0.2-0.1c-0.6-0.2-1.2-0.6-1.8-0.9c-0.4-0.1-0.7-0.4-1.1-0.6c-0.3,0.2-0.7,0.4-1.1,0.6
				c-0.5,0.3-0.9,0.7-1.4,1c-1,0.6-2.1,1-3.1,1.6c-0.1,0.1-0.2-0.1-0.2-0.2c0.6-0.7,1.5-1,2.4-1.4c1.2-0.5,1.9-1.4,3.1-1.8
				c-0.1-0.1-0.3-0.1-0.4-0.2c-1.2-0.5-2.3-1.2-3.4-1.7c-0.8,0.3-1.5,0.7-2.2,1.1c-0.7,0.4-1.4,1.1-2.2,1.1c-0.1,0-0.2-0.1-0.1-0.2
				c0.5-0.6,1.4-0.9,2.1-1.4c0.6-0.4,1.3-0.7,2-0.9c-0.9-0.4-1.9-0.6-2.7-1c-0.1,0-0.1-0.1-0.2-0.1c-0.3,0.3-0.6,0.4-1,0.5
				c-0.4,0.1-0.9,0.4-1.4,0.4c-0.1,0-0.1-0.1-0.1-0.2c0.2-0.3,0.6-0.4,1-0.5c0.4-0.1,0.8-0.3,1.1-0.4c-0.8-0.4-1.8-1-2.1-1.7
				c0.9,0.4,1.6,0.8,2.5,1.2c-0.1-0.2-0.1-0.4-0.2-0.6c-0.1-0.3-0.1-0.7-0.2-1c-0.1-0.3-0.2-0.5-0.2-0.8c0-0.1,0.1-0.1,0.2-0.1
				c0.4,0.3,0.4,0.8,0.5,1.2c0.1,0.5,0.2,1,0.2,1.5c0.3,0.2,0.6,0.3,1,0.5c0.7,0.3,1.4,0.5,2.1,0.7c-0.1-0.3-0.1-0.7-0.2-1
				c-0.1-1-0.7-2-0.5-3.1c0-0.1,0.1-0.1,0.2,0c0.3,0.7,0.4,1.6,0.6,2.3c0.2,0.7,0.1,1.3,0.3,1.9c0.6,0.2,1.1,0.4,1.6,0.7
				c0.7,0.5,1.5,1.1,2.3,1.4c-0.3-0.6-0.3-1.3-0.5-2c-0.2-1.1-1-2.1-0.9-3.2c0-0.1,0.1-0.1,0.1,0c0.8,1.7,1.1,3.6,1.5,5.4
				c1.1,0.3,2.1,0.8,3.1,1.3c-0.3-0.6-0.6-1.4-0.8-2c-0.3-0.8-0.6-1.8-0.4-2.6c0-0.1,0.2-0.1,0.2,0c0.6,1.6,0.9,3.2,1.4,4.9
				c0.6,0.3,1.1,0.5,1.7,0.7c-0.4,0.3-0.8,0.1-1.2,0c-0.3-0.1-0.6-0.1-0.9-0.2C343.2,814.6,342.4,814.9,341.6,815.5z"/>
		</g>
	</g>
	<g>
		<path class="st7" d="M529.3,905.3c0.2-0.2,0.5-0.2,0.8-0.2c0.2,0,1.7,0.1,1.6-0.3c-0.1-0.3-1.1-0.2-1.5-0.1c-0.2,0-0.5,0.1-0.7,0
			c-0.3-0.1-0.5-2-3.1-3.3c-0.6-0.3-1.6-0.6-2.3-0.9c-0.8-0.3-1.8-0.2-2.6-0.1c-1,0.1-2,0.6-2.8,1.2c-0.5,0.4-1,1.1-1.7,1.3
			c0.1,0.6,0.5,1.1,0.9,1.6c0.4,0.5,0.7,1,1.1,1.5c1,1.7,2.8,2.3,4.7,2.3c1.6,0,3.7-0.4,4.8-1.7C528.8,906.1,529,905.6,529.3,905.3z
			 M526.7,906.4c-0.3,0.4-0.7,0.8-1.2,1c-0.1,0-0.1-0.1-0.1-0.1c0.3-0.5,0.9-0.8,1.2-1.2c0.3-0.3,0.6-0.6,1-0.9c-0.1,0-0.1,0-0.2,0
			c-0.4-0.1-0.9-0.2-1.3-0.3c-0.3,0-0.5-0.1-0.8-0.2c-0.2,0.2-0.4,0.4-0.6,0.5c-0.3,0.3-0.5,0.6-0.7,0.9c-0.5,0.6-1.2,1-1.8,1.5
			c-0.1,0.1-0.2,0-0.1-0.1c0.3-0.6,0.8-0.9,1.3-1.3c0.7-0.5,1-1.2,1.7-1.6c-0.1,0-0.2-0.1-0.3-0.1c-0.8-0.2-1.7-0.4-2.5-0.6
			c-0.4,0.3-0.9,0.7-1.3,1.1c-0.4,0.4-0.7,0.9-1.2,1.1c-0.1,0-0.1,0-0.1-0.1c0.2-0.5,0.8-0.8,1.1-1.2c0.3-0.3,0.7-0.7,1.1-0.9
			c-0.6-0.1-1.3-0.1-1.9-0.3c0,0-0.1,0-0.1,0c-0.1,0.2-0.4,0.4-0.6,0.5c-0.2,0.2-0.5,0.4-0.8,0.4c-0.1,0-0.1-0.1-0.1-0.1
			c0.1-0.2,0.4-0.3,0.6-0.5c0.2-0.1,0.5-0.3,0.7-0.4c-0.6-0.1-1.3-0.4-1.7-0.8c0.6,0.1,1.2,0.3,1.8,0.4c-0.1-0.1-0.1-0.3-0.2-0.4
			c-0.1-0.2-0.2-0.4-0.3-0.6c-0.1-0.2-0.2-0.3-0.2-0.5c0-0.1,0-0.1,0.1-0.1c0.3,0.1,0.4,0.4,0.5,0.7c0.1,0.3,0.3,0.6,0.4,0.9
			c0.2,0.1,0.5,0.1,0.7,0.2c0.5,0.1,1,0.1,1.5,0.2c-0.1-0.2-0.2-0.4-0.3-0.7c-0.2-0.7-0.7-1.2-0.8-1.9c0-0.1,0.1-0.1,0.1-0.1
			c0.3,0.4,0.5,1,0.8,1.4c0.2,0.4,0.3,0.8,0.5,1.2c0.4,0,0.8,0.1,1.1,0.2c0.5,0.2,1.2,0.5,1.8,0.6c-0.3-0.4-0.4-0.8-0.6-1.3
			c-0.3-0.7-1-1.2-1.1-2c0,0,0.1-0.1,0.1,0c0.8,1,1.3,2.2,1.9,3.3c0.7,0.1,1.5,0.2,2.2,0.3c-0.3-0.4-0.6-0.8-0.8-1.2
			c-0.3-0.5-0.6-1.1-0.7-1.7c0-0.1,0.1-0.1,0.1-0.1c0.6,0.9,1.1,2,1.7,3c0.4,0.1,0.8,0.2,1.2,0.2c-0.2,0.2-0.5,0.2-0.8,0.2
			c-0.2,0-0.4,0-0.6,0C527.5,905.5,527,905.9,526.7,906.4z"/>
		<path class="st7" d="M637.8,894c0.1,0.1,0,0.2,0.2,0.2c0.2,0.1,0.5-0.2,0.7,0c-0.4,0.8,0.8,0.3,1.2,0.6c-0.4,0.9,1.1,0.4,0.8,1.1
			c-0.1,0.3-0.6,0.5,0,0.6c0.4,0.1,0.9-0.1,1.3,0.1c0,0.5-0.8,0.9,0.1,0.9c-0.1,0.1-0.1,0.2-0.2,0.3c0.3,0.2,0.6-0.1,0.9,0
			c-0.3,0.7,0.8,0,0.4,0.7c-0.1,0.2-0.5,0.6-0.1,0.7c0.2,0.1,0.5-0.1,0.8-0.1c0,0.1,0,0.2,0,0.3c0.3,0,0.8-0.4,1-0.3
			c0,0.1-0.1,0.2,0,0.3c0.3,0.1,0.6-0.2,0.7,0c0.1,0.2-0.1,0.6-0.2,0.8c0.5,0,1-0.1,1.5-0.3c0.2-0.1,0.4-0.3,0.6-0.3
			c0.2,0,0.3,0.2,0.5,0.1c0.4-0.1,0.6-0.5,0.6-0.9c0-0.5,0.6-0.8,0.7-1.2c0.1-0.4-0.1-2,0.3-2c0.4,0,0.9,0.2,1.3,0.3
			c0.4,0.1,0.8,0.2,1.2,0.3c0.2,0.1,1,0.5,1.1,0.4c0.3-0.2-0.1-0.3-0.2-0.4c-0.4-0.1-0.9-0.2-1.3-0.4c-0.6-0.2-1.1-0.4-1.6-0.6
			c-0.3-0.1-0.6-0.1-0.6-0.4c0-0.1,0.9-0.7,0.9-0.8c0.2-0.7-0.4-1.3-0.3-2.1c0-0.6,0-0.9-0.4-1.2c-0.3-0.3-0.5-0.3-0.8-0.4
			c-0.2-0.1-0.9-1.1-1.1-0.4c-0.4-0.1-1.2-1-1.7-0.5c0.1,0.2,0.2,0.3,0.3,0.4c-0.3,0.2-0.6-0.2-0.9,0c0.1,0.1,0.1,0.2,0.1,0.2
			c-0.4,0.2-1.7-0.8-2-0.1c-0.1,0.3,0.3,0.5,0.2,0.7c-0.1,0.2-0.4,0.2-0.6,0.2c-0.2,0-0.7-0.3-0.9-0.2c-0.3,0.1,0.1,0.5,0.2,0.6
			c0.4,0.7-0.9,0.4-1.2,0.3c-0.2,0-0.6-0.2-0.7,0c-0.1,0.2,0.3,0.5,0.3,0.7c-0.3,0.1-0.7-0.3-1-0.1c0.1,0.1,0.2,0.2,0.2,0.4
			c-0.3,0.1-0.6-0.1-0.9-0.1c-0.5-0.1-0.2,0.1-0.2,0.4c-0.3,0-0.8-0.3-1.1-0.1c0.1,0.1,0.2,0.2,0.3,0.4c-0.4,0.2-1,0.1-1.4,0.2
			C637.1,894.1,637.5,893.9,637.8,894z M640.7,893.6c0.8,0.1,1.7,0.3,2.5,0.5c0.8,0.2,1.6,0.3,2.4,0.5c0.9,0.3,2.5,0.8,3.2,0.7
			c-0.7-0.1-1.1-0.4-1.7-0.7c-1.1-0.5-2.1-1-3-2c0.6,0.4,1.5,1,2.3,1.4c0.6,0.3,2,1.1,2.7,1c-0.3-0.4-0.5-0.7-0.9-1.3
			c-0.5-0.7-1.1-1.3-1.5-2.2c0.8,1.2,2,2.1,2.6,3.4c-0.1-0.6-0.1-1.2-0.2-1.7c0-0.5-0.2-1-0.4-1.5c0.1,0.2,0.2,0.4,0.3,0.7
			c0.1,0.3,0.2,0.7,0.2,1c0.1,0.4,0,0.7,0.1,1c0.1,0.3,0.2,0.6,0.3,1c0,0.3-0.1,0.3-0.3,0.5c-0.2,0.2-0.3,0.5-0.5,0.7
			c-0.3,0.4-0.4,0.7-0.6,1.1c-0.3,0.4-0.5,0.9-0.8,1.2c0.5-0.9,0.8-2,1.6-2.8c-0.6,0.2-1.2,0.6-1.8,0.8c-0.4,0.2-0.7,0.4-1.1,0.5
			c-0.5,0.2-1.2,0.5-1.7,0.5c0.7-0.2,1.4-0.6,2-0.9c0.8-0.4,1.7-0.6,2.4-1.1c-0.8,0.1-1.6,0.1-2.3,0.1c-0.6,0-1.2,0-1.8-0.1
			c-0.7-0.1-1.4,0.1-2.1,0c0.8-0.1,1.8-0.1,2.6-0.1c1.1,0,2.5,0.2,3.5-0.2c-0.3-0.1-0.7-0.1-1.1-0.2c-0.6-0.2-1.2-0.3-1.8-0.5
			c-0.8-0.2-1.8-0.5-2.6-0.6c-0.4-0.1-0.9-0.1-1.3-0.2C641.6,894,641.1,893.8,640.7,893.6c-0.2,0-0.4-0.1-0.7-0.1
			C640.2,893.5,640.5,893.6,640.7,893.6z"/>
		<path class="st7" d="M584.8,929.7c0.4,0.1,0.7,0.4,0.9,0.7c0.2,0.3,1.4,2,1.7,1.6c0.2-0.3-0.8-1.4-1.1-1.8
			c-0.2-0.2-0.5-0.5-0.6-0.8c-0.1-0.5,1.8-2.1,1.2-6.3c-0.2-1-0.6-2.3-0.9-3.3c-0.3-1.1-1.3-2.2-2.1-3.1c-1-1-2.4-1.7-3.7-2.2
			c-0.9-0.3-2.1-0.3-2.9-0.8c-0.6,0.6-0.8,1.6-1.1,2.4c-0.3,0.8-0.5,1.6-0.8,2.4c-1.1,2.6-0.2,5,1.4,7.2c1.4,1.9,3.6,3.8,6,4.1
			C583.5,929.8,584.2,929.6,584.8,929.7z M581.4,927.6c-0.7,0-1.5-0.2-2.1-0.6c-0.1-0.1-0.1-0.2,0.1-0.2c0.8,0,1.6,0.4,2.4,0.4
			c0.6,0,1.3,0.2,1.9,0.4c0-0.1-0.1-0.1-0.1-0.2c-0.3-0.6-0.5-1.2-0.8-1.8c-0.2-0.3-0.3-0.7-0.4-1.1c-0.4-0.1-0.7-0.1-1.1-0.2
			c-0.6-0.1-1.1,0-1.6-0.1c-1.1-0.2-2.1-0.6-3.2-0.8c-0.1,0-0.1-0.2,0-0.2c0.9-0.1,1.7,0.2,2.6,0.4c1.1,0.3,2.2,0.2,3.3,0.6
			c-0.1-0.1-0.1-0.3-0.2-0.4c-0.5-1.1-0.9-2.2-1.4-3.4c-0.8-0.2-1.5-0.4-2.3-0.6c-0.7-0.1-1.6-0.1-2.2-0.5c-0.1,0-0.1-0.2,0-0.2
			c0.7-0.1,1.6,0.2,2.3,0.3c0.6,0.1,1.4,0.2,1.9,0.6c-0.4-0.8-1-1.6-1.3-2.4c0-0.1-0.1-0.1-0.1-0.2c-0.4,0-0.7-0.1-1.1-0.2
			c-0.4-0.1-0.9-0.3-1.2-0.6c-0.1-0.1,0-0.2,0.1-0.2c0.3-0.1,0.7,0.1,1,0.3c0.4,0.2,0.7,0.3,1.1,0.4c-0.3-0.8-0.7-1.8-0.5-2.5
			c0.4,0.8,0.7,1.6,1,2.4c0.1-0.2,0.2-0.4,0.3-0.5c0.2-0.3,0.3-0.6,0.5-0.8c0.1-0.2,0.2-0.5,0.4-0.7c0.1-0.1,0.2,0,0.2,0
			c0.1,0.4-0.2,0.8-0.4,1.2c-0.2,0.4-0.5,0.8-0.7,1.2c0.1,0.3,0.3,0.6,0.4,0.9c0.3,0.6,0.7,1.2,1.1,1.8c0.1-0.3,0.3-0.6,0.5-0.8
			c0.6-0.8,0.8-1.9,1.5-2.5c0.1-0.1,0.2,0,0.2,0.1c-0.2,0.7-0.7,1.4-1,2.1c-0.3,0.6-0.7,1-1,1.6c0.3,0.5,0.5,1,0.7,1.5
			c0.2,0.8,0.4,1.7,0.8,2.5c0.2-0.6,0.6-1.2,0.9-1.8c0.5-0.9,0.5-2.1,1.3-2.9c0.1,0,0.1,0,0.1,0.1c-0.5,1.8-1.4,3.2-2.2,4.8
			c0.6,0.9,1,1.8,1.5,2.8c0.2-0.7,0.4-1.3,0.7-1.9c0.3-0.7,0.7-1.6,1.3-2.1c0.1-0.1,0.2,0,0.2,0.1c-0.5,1.5-1.3,2.9-2,4.4
			c0.3,0.5,0.5,1.1,0.8,1.6c-0.4-0.1-0.7-0.4-0.9-0.7c-0.1-0.2-0.3-0.5-0.5-0.7C583.1,927.9,582.3,927.6,581.4,927.6z"/>
		<path class="st7" d="M571.1,804.1c0.4-0.4,1-0.4,1.6-0.5c0.5,0,3.3,0.1,3.1-0.6c-0.2-0.5-2.2-0.3-3-0.3c-0.4,0-1,0.1-1.4,0
			c-0.6-0.3-0.9-3.9-6.1-6.6c-1.3-0.7-3.1-1.3-4.5-1.8c-1.6-0.6-3.6-0.3-5.2-0.2c-2,0.2-3.9,1.2-5.5,2.4c-1,0.8-2.1,2.2-3.3,2.6
			c0.1,1.2,1.1,2.3,1.8,3.2c0.7,1,1.5,1.9,2.1,2.9c2,3.4,5.5,4.5,9.3,4.5c3.3,0,7.3-0.9,9.6-3.4
			C570.2,805.7,570.5,804.8,571.1,804.1z M565.9,806.2c-0.6,0.8-1.5,1.5-2.4,1.9c-0.1,0.1-0.3-0.1-0.2-0.2c0.7-0.9,1.7-1.5,2.4-2.4
			c0.5-0.7,1.3-1.3,2-1.8c-0.1,0-0.2,0-0.3,0c-0.9-0.1-1.7-0.5-2.6-0.6c-0.5-0.1-1.1-0.2-1.6-0.4c-0.4,0.4-0.8,0.7-1.2,1.1
			c-0.6,0.5-0.9,1.2-1.5,1.8c-1.1,1.1-2.4,1.9-3.5,3c-0.1,0.1-0.3,0-0.3-0.2c0.6-1.1,1.7-1.8,2.6-2.5c1.3-1,2-2.3,3.4-3.2
			c-0.2-0.1-0.4-0.1-0.6-0.1c-1.7-0.3-3.3-0.8-5-1.2c-0.9,0.7-1.7,1.3-2.5,2.1c-0.7,0.7-1.4,1.8-2.4,2.1c-0.1,0-0.2-0.1-0.2-0.2
			c0.5-0.9,1.5-1.7,2.2-2.4c0.7-0.6,1.4-1.3,2.2-1.7c-1.3-0.2-2.6-0.3-3.9-0.5c-0.1,0-0.2,0-0.3-0.1c-0.3,0.4-0.7,0.7-1.1,1
			c-0.5,0.3-1.1,0.8-1.6,0.9c-0.1,0-0.2-0.1-0.2-0.2c0.2-0.5,0.7-0.7,1.1-0.9c0.5-0.3,0.9-0.6,1.3-0.9c-1.2-0.3-2.6-0.7-3.3-1.6
			c1.2,0.2,2.4,0.5,3.5,0.8c-0.1-0.2-0.3-0.5-0.4-0.8c-0.2-0.4-0.4-0.8-0.6-1.2c-0.2-0.3-0.4-0.6-0.5-1c0-0.1,0.1-0.2,0.2-0.2
			c0.6,0.3,0.8,0.9,1,1.4c0.3,0.6,0.5,1.2,0.8,1.9c0.5,0.1,0.9,0.2,1.4,0.3c0.9,0.2,2,0.2,3,0.3c-0.2-0.4-0.4-0.9-0.5-1.3
			c-0.4-1.3-1.5-2.4-1.6-3.8c0-0.1,0.2-0.2,0.2-0.1c0.7,0.8,1,1.9,1.5,2.9c0.4,0.8,0.5,1.6,1,2.4c0.8,0.1,1.5,0.2,2.2,0.5
			c1.1,0.4,2.3,1,3.5,1.1c-0.5-0.8-0.8-1.6-1.2-2.5c-0.6-1.3-2-2.4-2.2-3.9c0-0.1,0.1-0.2,0.2-0.1c1.6,2,2.5,4.3,3.7,6.5
			c1.5,0.1,2.9,0.4,4.4,0.7c-0.6-0.7-1.2-1.6-1.6-2.4c-0.6-1-1.3-2.1-1.3-3.3c0-0.1,0.2-0.2,0.3-0.1c1.3,1.8,2.2,3.9,3.3,5.9
			c0.8,0.2,1.6,0.3,2.4,0.4c-0.4,0.4-1,0.5-1.5,0.4c-0.4,0-0.8,0-1.2,0C567.6,804.6,566.6,805.2,565.9,806.2z"/>
		<path class="st7" d="M552.8,853.5c0.1,0.1,0.1,0.3,0.3,0.4c0.4,0.1,0.9-0.3,1.2,0.1c-0.6,1.3,1.4,0.5,2,0.9
			c-0.7,1.5,1.9,0.7,1.3,1.8c-0.2,0.4-1,0.9,0,1.1c0.7,0.2,1.5-0.2,2.3,0.1c0.1,0.9-1.3,1.4,0.2,1.6c-0.1,0.1-0.2,0.3-0.3,0.5
			c0.5,0.3,1-0.1,1.5,0c-0.5,1.1,1.4,0,0.7,1.2c-0.2,0.4-0.8,0.9-0.2,1.2c0.4,0.2,0.9-0.2,1.3-0.2c0,0.2-0.1,0.4-0.1,0.6
			c0.5,0,1.3-0.7,1.7-0.4c-0.1,0.2-0.1,0.4-0.1,0.5c0.4,0.1,1-0.3,1.2,0.1c0.2,0.3-0.2,1-0.3,1.3c0.8,0,1.7-0.1,2.4-0.5
			c0.3-0.2,0.6-0.5,1-0.5c0.3,0,0.5,0.3,0.9,0.2c0.6-0.2,1-0.9,1-1.5c0.1-0.8,1.1-1.3,1.2-2.1c0.2-0.7-0.2-3.3,0.6-3.4
			c0.6-0.1,1.5,0.4,2.2,0.5c0.7,0.1,1.4,0.3,2.1,0.6c0.3,0.1,1.6,0.8,1.9,0.6c0.4-0.3-0.1-0.6-0.4-0.7c-0.7-0.2-1.4-0.4-2.1-0.6
			c-0.9-0.3-1.8-0.7-2.8-1c-0.5-0.1-1-0.1-1.1-0.6c-0.1-0.3,1.4-1.1,1.5-1.4c0.3-1.2-0.7-2.1-0.6-3.4c0.1-0.9,0-1.5-0.7-2.1
			c-0.5-0.4-0.9-0.5-1.4-0.7c-0.4-0.2-1.6-1.8-1.8-0.6c-0.7-0.2-2-1.6-2.8-0.8c0.1,0.3,0.4,0.4,0.5,0.7c-0.5,0.3-1-0.3-1.5,0
			c0.1,0.1,0.1,0.3,0.2,0.4c-0.7,0.3-2.9-1.3-3.3-0.2c-0.2,0.4,0.5,0.8,0.3,1.2c-0.1,0.4-0.6,0.3-1,0.3c-0.4,0-1.2-0.5-1.5-0.4
			c-0.6,0.2,0.2,0.8,0.4,1c0.7,1.1-1.4,0.6-2,0.5c-0.3,0-1-0.3-1.2,0.1c-0.1,0.3,0.4,0.8,0.5,1.1c-0.6,0.2-1.2-0.5-1.7-0.1
			c0.1,0.2,0.3,0.4,0.4,0.7c-0.5,0.2-1-0.1-1.5-0.2c-0.8-0.2-0.4,0.2-0.3,0.7c-0.5,0-1.4-0.5-1.8-0.2c0.1,0.2,0.4,0.4,0.5,0.7
			c-0.6,0.3-1.6,0.1-2.3,0.3C551.6,853.5,552.3,853.2,552.8,853.5z M557.6,852.8c1.4,0.2,2.8,0.4,4.2,0.8c1.3,0.3,2.7,0.4,4,0.8
			c1.5,0.4,4.2,1.3,5.3,1.2c-1.1-0.2-1.8-0.6-2.8-1.1c-1.8-0.9-3.5-1.7-5-3.4c1.1,0.7,2.5,1.7,3.8,2.4c1,0.5,3.3,1.8,4.5,1.6
			c-0.5-0.7-0.9-1.1-1.5-2.1c-0.8-1.2-1.8-2.2-2.5-3.7c1.3,1.9,3.3,3.6,4.3,5.7c-0.1-1-0.2-1.9-0.3-2.9c-0.1-0.9-0.3-1.6-0.6-2.4
			c0.2,0.4,0.4,0.7,0.5,1.1c0.2,0.6,0.3,1.2,0.4,1.7c0.1,0.6,0,1.2,0.1,1.7c0.1,0.6,0.4,1.1,0.4,1.6c0.1,0.4-0.2,0.5-0.5,0.8
			c-0.4,0.4-0.5,0.8-0.8,1.2c-0.5,0.7-0.6,1.2-1,1.8c-0.5,0.6-0.8,1.5-1.4,2c0.8-1.5,1.4-3.4,2.6-4.7c-1,0.4-2,0.9-3,1.4
			c-0.6,0.3-1.2,0.6-1.8,0.8c-0.8,0.3-2,0.9-2.8,0.9c1.1-0.4,2.4-1,3.4-1.6c1.3-0.7,2.8-1.1,4.1-1.8c-1.3,0.2-2.6,0.2-3.9,0.2
			c-1,0-2,0-3-0.1c-1.1-0.1-2.3,0.1-3.4-0.1c1.4-0.2,3-0.2,4.4-0.2c1.8,0.1,4.1,0.3,5.9-0.4c-0.6-0.2-1.2-0.2-1.8-0.4
			c-1-0.3-2-0.5-3-0.8c-1.4-0.4-2.9-0.8-4.4-1c-0.7-0.1-1.5-0.2-2.2-0.3C559.1,853.4,558.3,853,557.6,852.8c-0.4,0-0.7-0.1-1.1-0.1
			C556.9,852.7,557.2,852.7,557.6,852.8z"/>
		<path class="st7" d="M592.7,890c0.3,0.2,0.4,0.6,0.4,0.9c0.1,0.3,0.2,2,0.6,1.9c0.3-0.1,0-1.4-0.1-1.8c0-0.3-0.2-0.6-0.1-0.9
			c0.1-0.4,2.3-0.9,3.5-4.2c0.3-0.8,0.5-2,0.7-2.9c0.2-1-0.1-2.2-0.4-3.2c-0.3-1.2-1.1-2.3-1.9-3.1c-0.6-0.6-1.5-1.1-1.9-1.8
			c-0.7,0.2-1.3,0.8-1.8,1.3c-0.5,0.5-1,1-1.6,1.5c-1.9,1.5-2.2,3.7-1.9,6c0.3,2,1.2,4.4,2.9,5.6C591.7,889.6,592.3,889.7,592.7,890
			z M591,887c-0.5-0.3-1-0.8-1.4-1.3c0-0.1,0-0.2,0.1-0.1c0.6,0.3,1.1,0.9,1.7,1.3c0.5,0.3,0.9,0.7,1.3,1.1c0-0.1,0-0.1,0-0.2
			c0-0.5,0.1-1.1,0.1-1.7c0-0.3,0-0.7,0.1-1c-0.3-0.2-0.5-0.4-0.8-0.6c-0.4-0.3-0.8-0.5-1.2-0.7c-0.8-0.6-1.4-1.3-2.1-1.9
			c-0.1-0.1,0-0.2,0.1-0.2c0.7,0.2,1.2,0.9,1.8,1.4c0.7,0.7,1.6,1,2.3,1.8c0-0.1,0-0.2,0-0.4c0.1-1,0.2-2.1,0.3-3.1
			c-0.5-0.5-0.9-0.9-1.5-1.3c-0.5-0.4-1.2-0.7-1.5-1.3c0-0.1,0-0.2,0.1-0.1c0.6,0.2,1.1,0.8,1.6,1.2c0.4,0.3,0.9,0.7,1.2,1.2
			c0-0.8-0.1-1.6,0-2.4c0-0.1,0-0.1,0-0.2c-0.3-0.1-0.5-0.4-0.7-0.6c-0.2-0.3-0.6-0.6-0.7-0.9c0-0.1,0-0.1,0.1-0.1
			c0.3,0.1,0.5,0.4,0.7,0.6c0.2,0.3,0.4,0.5,0.6,0.7c0.1-0.7,0.2-1.6,0.7-2.1c0,0.8-0.1,1.5-0.2,2.2c0.1-0.1,0.3-0.2,0.4-0.3
			c0.2-0.1,0.5-0.3,0.7-0.4c0.2-0.1,0.3-0.3,0.6-0.4c0.1,0,0.1,0,0.1,0.1c-0.1,0.4-0.5,0.5-0.8,0.7c-0.4,0.2-0.7,0.4-1.1,0.6
			c0,0.3,0,0.6-0.1,0.9c0,0.6,0,1.2,0.1,1.8c0.2-0.2,0.5-0.3,0.7-0.4c0.8-0.4,1.3-1.1,2.2-1.3c0.1,0,0.1,0.1,0.1,0.1
			c-0.4,0.5-1.1,0.8-1.6,1.1c-0.4,0.3-1,0.5-1.4,0.8c0,0.5,0,1-0.1,1.4c-0.2,0.7-0.4,1.5-0.4,2.2c0.4-0.4,0.9-0.6,1.4-1
			c0.8-0.5,1.3-1.4,2.2-1.6c0.1,0,0.1,0.1,0.1,0.1c-1.1,1.1-2.4,1.9-3.6,2.8c0.1,0.9,0,1.8,0,2.7c0.4-0.4,0.9-0.8,1.3-1.2
			c0.5-0.4,1.2-1,1.9-1.1c0.1,0,0.2,0.1,0.1,0.1c-1,0.9-2.2,1.7-3.3,2.5c0,0.5,0,1,0,1.5c-0.3-0.2-0.4-0.6-0.4-0.9
			c0-0.2-0.1-0.5-0.1-0.7C592.1,887.9,591.6,887.4,591,887z"/>
	</g>
	<g>
		<path class="st7" d="M1210.4,713.7c0.3-0.1,0.5,0.1,0.8,0.2c0.2,0.1,1.3,0.9,1.4,0.6c0.1-0.2-0.8-0.7-1.1-0.9
			c-0.2-0.1-0.4-0.2-0.5-0.4c-0.2-0.3,0.7-1.8-0.7-4.2c-0.3-0.6-0.9-1.3-1.3-1.9c-0.5-0.6-1.3-1.1-2-1.4c-0.8-0.4-1.9-0.6-2.8-0.5
			c-0.6,0-1.4,0.3-2,0.2c-0.3,0.5-0.2,1.2-0.1,1.7c0,0.6,0.1,1.1,0.1,1.7c-0.1,1.8,1,3.2,2.5,4.2c1.3,0.9,3.1,1.6,4.7,1.2
			C1209.6,714.1,1210,713.8,1210.4,713.7z M1207.8,713.2c-0.5,0.2-1,0.2-1.5,0.1c-0.1,0-0.1-0.1,0-0.1c0.5-0.2,1.1-0.1,1.6-0.3
			c0.4-0.1,0.8-0.2,1.3-0.2c0,0-0.1-0.1-0.1-0.1c-0.3-0.3-0.6-0.6-0.9-0.9c-0.2-0.2-0.4-0.4-0.5-0.6c-0.3,0.1-0.5,0.1-0.8,0.1
			c-0.4,0-0.7,0.2-1,0.3c-0.7,0.2-1.5,0.1-2.2,0.3c-0.1,0-0.1-0.1-0.1-0.1c0.5-0.3,1.1-0.3,1.7-0.3c0.8-0.1,1.4-0.4,2.2-0.4
			c-0.1-0.1-0.1-0.1-0.2-0.2c-0.6-0.6-1.1-1.2-1.7-1.8c-0.5,0-1,0.1-1.5,0.2c-0.5,0.1-1,0.3-1.5,0.2c0,0-0.1-0.1,0-0.1
			c0.4-0.2,1-0.3,1.5-0.4c0.4-0.1,0.9-0.2,1.3-0.1c-0.5-0.4-1-0.8-1.4-1.2c0,0-0.1-0.1-0.1-0.1c-0.2,0.1-0.5,0.1-0.7,0.1
			c-0.3,0-0.6,0-0.9-0.1c-0.1,0-0.1-0.1,0-0.1c0.2-0.1,0.5-0.1,0.7-0.1c0.3,0,0.5,0,0.7,0c-0.4-0.4-0.8-1-0.9-1.5
			c0.4,0.4,0.8,0.8,1.2,1.2c0-0.1,0-0.3,0-0.4c0-0.2,0.1-0.4,0.1-0.6c0-0.2,0-0.3,0.1-0.5c0,0,0.1-0.1,0.1,0c0.2,0.3,0.1,0.5,0,0.8
			c-0.1,0.3-0.1,0.6-0.2,0.9c0.2,0.2,0.3,0.3,0.5,0.5c0.3,0.3,0.7,0.6,1.1,0.9c0-0.2,0.1-0.4,0.1-0.6c0.2-0.6,0-1.3,0.3-1.9
			c0-0.1,0.1,0,0.1,0c0,0.5-0.1,1-0.2,1.5c0,0.4-0.2,0.8-0.2,1.2c0.3,0.2,0.6,0.5,0.8,0.8c0.3,0.4,0.7,1,1.1,1.4
			c0-0.4,0.1-0.9,0.2-1.3c0.1-0.7-0.2-1.5,0.2-2.1c0,0,0.1,0,0.1,0c0.1,1.2-0.1,2.3-0.3,3.5c0.6,0.4,1.1,0.9,1.6,1.4
			c0-0.4,0-0.9,0-1.4c0-0.5,0.1-1.2,0.3-1.6c0-0.1,0.1-0.1,0.1,0c0,1-0.2,2.1-0.2,3.2c0.3,0.3,0.6,0.5,0.9,0.8
			c-0.3,0.1-0.5-0.1-0.7-0.2c-0.1-0.1-0.3-0.2-0.5-0.3C1208.9,713,1208.3,713,1207.8,713.2z"/>
		<path class="st7" d="M1319.1,705.3c0.1,0,0.1,0.1,0.3,0.1c0.2,0,0.4-0.4,0.6-0.3c0.1,0.8,0.8-0.1,1.2-0.1c0.1,0.9,1.1-0.2,1.2,0.5
			c0,0.3-0.2,0.7,0.3,0.5c0.4-0.1,0.7-0.5,1.1-0.5c0.3,0.4-0.2,1,0.5,0.7c0,0.1,0,0.2,0,0.3c0.3,0,0.5-0.3,0.7-0.4
			c0.1,0.7,0.7-0.4,0.7,0.4c0,0.2-0.1,0.7,0.2,0.6c0.2,0,0.4-0.4,0.6-0.5c0,0.1,0.1,0.2,0.1,0.3c0.2-0.1,0.4-0.7,0.7-0.7
			c0,0.1,0.1,0.2,0.1,0.3c0.2-0.1,0.4-0.4,0.6-0.3c0.2,0.1,0.2,0.5,0.2,0.7c0.4-0.2,0.8-0.5,1-0.9c0.1-0.2,0.2-0.4,0.3-0.5
			c0.2-0.1,0.3,0,0.5-0.2c0.3-0.3,0.2-0.7,0.1-1c-0.2-0.4,0.1-0.9,0-1.4c-0.1-0.4-1-1.6-0.7-1.8c0.3-0.2,0.9-0.2,1.2-0.4
			c0.4-0.1,0.8-0.2,1.2-0.3c0.2,0,1,0,1.1-0.2c0.1-0.3-0.2-0.3-0.4-0.2c-0.4,0.1-0.8,0.2-1.2,0.3c-0.5,0.1-1.1,0.2-1.6,0.3
			c-0.3,0.1-0.5,0.2-0.7,0c-0.1-0.1,0.4-0.9,0.4-1.1c-0.2-0.7-0.9-0.9-1.2-1.5c-0.2-0.5-0.4-0.7-0.9-0.8c-0.4-0.1-0.6,0-0.9,0
			c-0.2,0-1.3-0.4-1.1,0.2c-0.4,0.1-1.4-0.2-1.6,0.4c0.1,0.1,0.3,0.1,0.4,0.2c-0.2,0.3-0.6,0.1-0.7,0.4c0.1,0,0.1,0.1,0.2,0.1
			c-0.2,0.3-1.7,0.2-1.7,0.8c0,0.3,0.4,0.2,0.5,0.5c0.1,0.2-0.2,0.3-0.4,0.4c-0.2,0.1-0.7,0.1-0.8,0.2c-0.2,0.3,0.3,0.3,0.5,0.4
			c0.6,0.3-0.5,0.7-0.8,0.8c-0.1,0.1-0.6,0.1-0.6,0.4c0,0.2,0.4,0.3,0.5,0.4c-0.2,0.2-0.7,0.1-0.9,0.4c0.1,0.1,0.3,0.1,0.4,0.2
			c-0.2,0.2-0.5,0.2-0.8,0.3c-0.4,0.2-0.2,0.2,0.1,0.4c-0.2,0.2-0.8,0.1-0.9,0.4c0.1,0.1,0.3,0.1,0.4,0.2c-0.2,0.3-0.8,0.5-1.1,0.8
			C1318.6,705.7,1318.8,705.3,1319.1,705.3z M1321.3,703.7c0.7-0.3,1.5-0.6,2.3-0.8c0.7-0.2,1.4-0.5,2.2-0.7
			c0.9-0.2,2.4-0.5,2.9-0.9c-0.6,0.2-1.1,0.2-1.7,0.2c-1.1,0.1-2.2,0.1-3.4-0.3c0.7,0.1,1.7,0.2,2.5,0.1c0.6,0,2.1,0,2.6-0.4
			c-0.4-0.2-0.7-0.3-1.3-0.6c-0.7-0.4-1.5-0.6-2.3-1.1c1.2,0.6,2.6,0.8,3.7,1.6c-0.3-0.4-0.6-0.9-0.9-1.3c-0.3-0.4-0.6-0.7-1-1
			c0.2,0.1,0.4,0.2,0.6,0.4c0.3,0.2,0.5,0.5,0.7,0.8c0.2,0.3,0.3,0.6,0.5,0.8c0.2,0.3,0.5,0.4,0.7,0.7c0.2,0.2,0,0.3,0,0.5
			c-0.1,0.3,0,0.6,0,0.8c0,0.5,0,0.8,0,1.2c0,0.4,0,1-0.1,1.4c0-1-0.3-2.1,0-3c-0.4,0.5-0.7,1-1.1,1.5c-0.2,0.3-0.4,0.6-0.6,0.9
			c-0.3,0.3-0.7,1-1.1,1.2c0.4-0.5,0.9-1.1,1.2-1.7c0.4-0.7,1.1-1.3,1.5-2c-0.6,0.5-1.2,0.8-1.9,1.2c-0.5,0.3-1,0.5-1.5,0.8
			c-0.6,0.3-1.1,0.7-1.7,0.9c0.6-0.5,1.4-0.9,2.1-1.3c0.9-0.5,2.1-1,2.8-1.8c-0.3,0-0.7,0.2-1,0.3c-0.6,0.1-1.1,0.3-1.7,0.4
			c-0.8,0.2-1.6,0.4-2.4,0.7c-0.4,0.1-0.8,0.3-1.2,0.4C1322.2,703.5,1321.7,703.6,1321.3,703.7c-0.2,0.1-0.4,0.2-0.6,0.3
			C1320.9,703.8,1321.1,703.7,1321.3,703.7z"/>
		<path class="st7" d="M1297.7,783.6c0.4-0.2,0.7,0,1.1,0.1c0.3,0.1,2,1,2.1,0.5c0-0.4-1.3-0.8-1.7-1c-0.3-0.1-0.6-0.2-0.8-0.4
			c-0.3-0.3,0.5-2.6-1.9-5.7c-0.6-0.8-1.6-1.6-2.3-2.3c-0.8-0.8-2.1-1.2-3.1-1.5c-1.3-0.4-2.7-0.3-4-0.1c-0.8,0.2-1.8,0.7-2.7,0.7
			c-0.3,0.8,0,1.7,0.2,2.4c0.2,0.8,0.4,1.6,0.5,2.4c0.3,2.6,2.1,4.2,4.4,5.3c2,0.9,4.7,1.5,6.8,0.6
			C1296.7,784.3,1297.1,783.8,1297.7,783.6z M1293.9,783.5c-0.6,0.3-1.3,0.5-2,0.5c-0.1,0-0.1-0.1,0-0.2c0.7-0.4,1.5-0.4,2.2-0.8
			c0.5-0.3,1.1-0.4,1.7-0.5c-0.1,0-0.1-0.1-0.2-0.1c-0.5-0.3-0.9-0.8-1.5-1.1c-0.3-0.2-0.6-0.4-0.9-0.7c-0.3,0.1-0.7,0.2-1,0.3
			c-0.5,0.1-0.9,0.5-1.4,0.7c-1,0.4-2,0.5-3,0.9c-0.1,0-0.2-0.1-0.1-0.2c0.6-0.5,1.5-0.6,2.3-0.8c1.1-0.3,1.9-0.9,3-1
			c-0.1-0.1-0.2-0.2-0.3-0.2c-0.9-0.7-1.8-1.4-2.7-2.1c-0.7,0.2-1.4,0.3-2.1,0.6c-0.6,0.2-1.4,0.7-2.1,0.6c-0.1,0-0.1-0.1-0.1-0.2
			c0.5-0.4,1.4-0.6,2-0.8c0.6-0.2,1.2-0.4,1.8-0.4c-0.7-0.5-1.5-0.9-2.2-1.4c-0.1,0-0.1-0.1-0.2-0.1c-0.3,0.2-0.6,0.2-1,0.3
			c-0.4,0.1-0.9,0.2-1.2,0.1c-0.1,0-0.1-0.1,0-0.2c0.2-0.2,0.6-0.2,0.9-0.2c0.4,0,0.7-0.1,1-0.2c-0.6-0.5-1.4-1.2-1.6-1.8
			c0.7,0.5,1.3,1,1.9,1.5c0-0.2,0-0.4,0-0.6c0-0.3,0-0.6,0-0.9c0-0.3-0.1-0.5,0-0.7c0-0.1,0.1-0.1,0.2,0c0.3,0.3,0.2,0.7,0.2,1.1
			c0,0.4,0,0.9,0,1.3c0.2,0.2,0.5,0.4,0.8,0.6c0.5,0.4,1.1,0.7,1.7,1c0-0.3,0-0.6,0-0.9c0.1-0.9-0.2-1.9,0-2.8c0-0.1,0.2-0.1,0.2,0
			c0.2,0.7,0.1,1.4,0.1,2.1c0,0.6-0.1,1.1,0,1.7c0.5,0.3,0.9,0.5,1.2,0.9c0.6,0.6,1.1,1.2,1.8,1.6c-0.1-0.6-0.1-1.2-0.1-1.9
			c0-1-0.6-2-0.3-3c0-0.1,0.1-0.1,0.1,0c0.4,1.7,0.4,3.3,0.5,5c0.9,0.5,1.7,1,2.5,1.6c-0.2-0.6-0.3-1.3-0.4-1.9
			c-0.1-0.7-0.2-1.7,0.1-2.4c0-0.1,0.2-0.1,0.2,0c0.3,1.5,0.3,3,0.4,4.5c0.5,0.3,0.9,0.6,1.4,0.9c-0.4,0.2-0.8,0-1-0.2
			c-0.2-0.1-0.5-0.2-0.7-0.3C1295.4,782.9,1294.6,783.1,1293.9,783.5z"/>
		<path class="st7" d="M1236.6,684.6c0.1-0.4,0.4-0.6,0.8-0.8c0.3-0.2,2-1.1,1.7-1.4c-0.3-0.3-1.5,0.6-1.9,0.8
			c-0.2,0.1-0.6,0.4-0.8,0.5c-0.5,0.1-1.9-2-5.9-1.9c-1,0-2.3,0.3-3.3,0.5c-1.1,0.2-2.3,1-3.2,1.7c-1.1,0.8-1.9,2.1-2.5,3.3
			c-0.4,0.8-0.5,2-1.1,2.7c0.5,0.7,1.4,1,2.1,1.3c0.8,0.3,1.5,0.6,2.2,1.1c2.3,1.3,4.8,0.8,7.1-0.4c2-1.1,4.1-3,4.6-5.3
			C1236.6,685.9,1236.4,685.2,1236.6,684.6z M1234.2,687.7c-0.1,0.7-0.4,1.4-0.8,2c-0.1,0.1-0.2,0-0.2-0.1c0.1-0.8,0.5-1.5,0.6-2.3
			c0.1-0.6,0.3-1.2,0.6-1.8c-0.1,0-0.1,0.1-0.2,0.1c-0.6,0.2-1.2,0.3-1.8,0.5c-0.3,0.1-0.7,0.2-1.1,0.3c-0.1,0.4-0.2,0.7-0.4,1.1
			c-0.2,0.5-0.1,1-0.3,1.6c-0.3,1-0.8,2-1.1,3c0,0.1-0.2,0.1-0.2,0c0-0.9,0.4-1.6,0.7-2.4c0.4-1.1,0.4-2.1,0.9-3.1
			c-0.1,0-0.3,0.1-0.4,0.1c-1.1,0.4-2.3,0.6-3.4,1c-0.3,0.7-0.6,1.4-0.8,2.1c-0.2,0.7-0.3,1.6-0.8,2.1c-0.1,0.1-0.2,0-0.2,0
			c0-0.7,0.3-1.5,0.5-2.2c0.2-0.6,0.4-1.3,0.8-1.8c-0.8,0.3-1.7,0.7-2.5,1c-0.1,0-0.1,0-0.2,0.1c0,0.4-0.2,0.7-0.3,1
			c-0.2,0.3-0.4,0.9-0.7,1.1c-0.1,0-0.2,0-0.2-0.1c0-0.3,0.2-0.7,0.4-0.9c0.2-0.3,0.3-0.6,0.5-1c-0.8,0.2-1.8,0.4-2.5,0.2
			c0.8-0.3,1.6-0.5,2.4-0.7c-0.2-0.1-0.3-0.2-0.5-0.3c-0.3-0.2-0.5-0.4-0.8-0.5c-0.2-0.2-0.4-0.2-0.6-0.4c0-0.1,0-0.2,0.1-0.2
			c0.4,0,0.8,0.3,1.1,0.5c0.4,0.3,0.7,0.6,1.1,0.9c0.3-0.1,0.6-0.2,0.9-0.3c0.6-0.2,1.3-0.5,1.9-0.8c-0.3-0.2-0.5-0.4-0.8-0.6
			c-0.7-0.6-1.7-0.9-2.3-1.7c-0.1-0.1,0-0.2,0.1-0.1c0.7,0.3,1.2,0.8,1.9,1.2c0.5,0.3,0.9,0.8,1.4,1.1c0.5-0.2,1-0.4,1.5-0.5
			c0.8-0.1,1.7-0.2,2.5-0.5c-0.6-0.3-1.1-0.7-1.6-1.1c-0.8-0.6-2-0.8-2.6-1.6c0-0.1,0-0.1,0.1-0.1c1.7,0.7,3,1.7,4.4,2.7
			c0.9-0.4,1.9-0.7,2.9-1.1c-0.6-0.2-1.2-0.6-1.8-0.9c-0.7-0.4-1.5-0.9-1.9-1.5c0-0.1,0-0.2,0.1-0.2c1.4,0.7,2.7,1.6,4,2.4
			c0.5-0.2,1.1-0.4,1.6-0.6c-0.1,0.4-0.5,0.6-0.8,0.8c-0.2,0.1-0.5,0.3-0.7,0.4C1234.6,686.1,1234.3,686.8,1234.2,687.7z"/>
		<path class="st7" d="M1232.8,732.8c0.1,0,0.2,0.2,0.5,0.1c0.4-0.1,0.6-0.6,1-0.5c0.1,1.3,1.4-0.2,2-0.2c0.1,1.5,1.8-0.3,1.9,0.9
			c0,0.4-0.4,1.1,0.5,0.9c0.7-0.2,1.1-0.8,1.9-0.9c0.5,0.7-0.4,1.7,0.9,1.2c0,0.2,0,0.3,0,0.5c0.5,0,0.8-0.5,1.2-0.7
			c0.1,1.1,1.1-0.6,1.1,0.7c0,0.4-0.2,1.1,0.4,1.1c0.4,0,0.6-0.6,1-0.8c0.1,0.2,0.1,0.3,0.2,0.5c0.4-0.2,0.7-1.2,1.2-1.1
			c0,0.2,0.1,0.3,0.2,0.5c0.4-0.1,0.7-0.7,1-0.5c0.3,0.2,0.3,0.9,0.3,1.2c0.7-0.4,1.3-0.9,1.7-1.5c0.2-0.3,0.3-0.7,0.6-0.9
			c0.3-0.2,0.5,0,0.8-0.3c0.4-0.5,0.4-1.2,0.2-1.7c-0.3-0.7,0.2-1.6,0.1-2.3c-0.2-0.7-1.7-2.6-1.1-3c0.5-0.3,1.4-0.4,2-0.6
			c0.6-0.2,1.3-0.4,1.9-0.5c0.3-0.1,1.7-0.1,1.8-0.4c0.2-0.4-0.3-0.4-0.6-0.4c-0.6,0.1-1.3,0.3-2,0.5c-0.9,0.2-1.8,0.3-2.7,0.5
			c-0.4,0.1-0.8,0.4-1.2,0c-0.2-0.2,0.7-1.6,0.6-1.8c-0.3-1.1-1.5-1.4-2-2.5c-0.4-0.8-0.7-1.2-1.5-1.4c-0.6-0.1-0.9,0-1.5,0.1
			c-0.4,0-2.1-0.7-1.8,0.3c-0.7,0.2-2.4-0.4-2.6,0.7c0.2,0.2,0.5,0.2,0.7,0.4c-0.3,0.5-1,0.2-1.2,0.7c0.1,0,0.2,0.2,0.4,0.2
			c-0.4,0.5-2.9,0.3-2.8,1.4c0.1,0.4,0.7,0.4,0.8,0.8c0.1,0.4-0.3,0.5-0.7,0.7c-0.3,0.1-1.2,0.1-1.4,0.4c-0.3,0.4,0.5,0.5,0.8,0.7
			c1.1,0.6-0.9,1.2-1.4,1.3c-0.2,0.1-0.9,0.2-0.9,0.6c0,0.3,0.7,0.4,0.9,0.7c-0.4,0.4-1.2,0.2-1.5,0.7c0.2,0.2,0.4,0.2,0.6,0.4
			c-0.3,0.4-0.9,0.4-1.3,0.5c-0.7,0.3-0.3,0.3,0.1,0.7c-0.4,0.3-1.4,0.2-1.6,0.6c0.2,0.1,0.5,0.1,0.7,0.3c-0.4,0.5-1.3,0.9-1.8,1.3
			C1231.8,733.4,1232.2,732.8,1232.8,732.8z M1236.4,730.1c1.2-0.5,2.5-0.9,3.8-1.3c1.2-0.3,2.4-0.9,3.6-1.2
			c1.5-0.4,4.1-0.8,4.9-1.5c-1,0.3-1.8,0.3-2.8,0.4c-1.8,0.1-3.7,0.2-5.7-0.4c1.2,0.1,2.9,0.3,4.2,0.2c1.1,0,3.5,0,4.4-0.8
			c-0.7-0.4-1.2-0.5-2.2-1c-1.2-0.6-2.5-1-3.8-1.9c2,1,4.4,1.4,6.2,2.7c-0.5-0.7-1.1-1.5-1.5-2.2c-0.5-0.7-1-1.2-1.6-1.7
			c0.3,0.2,0.6,0.4,1,0.7c0.4,0.4,0.8,0.8,1.1,1.3c0.4,0.4,0.6,0.9,0.9,1.4c0.3,0.4,0.8,0.7,1.1,1.1c0.3,0.3,0.1,0.5,0,0.8
			c-0.1,0.5,0,0.9-0.1,1.4c-0.1,0.8,0.1,1.3,0,1.9c-0.1,0.7,0.1,1.6-0.2,2.3c-0.1-1.6-0.5-3.4-0.1-5.1c-0.6,0.8-1.2,1.7-1.8,2.5
			c-0.4,0.5-0.7,1-1.1,1.5c-0.5,0.6-1.2,1.7-1.9,2c0.8-0.8,1.5-1.9,2-2.9c0.7-1.2,1.8-2.2,2.5-3.3c-1,0.8-2,1.3-3.1,1.9
			c-0.8,0.5-1.7,0.9-2.5,1.3c-1,0.4-1.8,1.2-2.8,1.5c1-0.8,2.3-1.5,3.5-2.2c1.5-0.8,3.5-1.7,4.6-3c-0.5,0.1-1.1,0.4-1.6,0.5
			c-1,0.2-1.9,0.5-2.8,0.7c-1.3,0.4-2.8,0.7-4.1,1.2c-0.7,0.2-1.3,0.5-1.9,0.7C1237.8,729.8,1237.1,729.9,1236.4,730.1
			c-0.3,0.1-0.6,0.3-1,0.4C1235.7,730.3,1236,730.1,1236.4,730.1z"/>
		<path class="st7" d="M1265.2,716.2c0.3,0,0.5,0.3,0.8,0.5c0.2,0.2,1.1,1.6,1.4,1.2c0.2-0.3-0.7-1.1-0.9-1.5
			c-0.1-0.2-0.4-0.4-0.5-0.6c-0.1-0.4,1.4-1.8,0.9-5.1c-0.1-0.8-0.5-1.9-0.8-2.7c-0.3-0.9-1.1-1.8-1.8-2.4c-0.8-0.8-1.9-1.4-3-1.7
			c-0.7-0.2-1.7-0.2-2.3-0.6c-0.5,0.5-0.7,1.3-0.8,1.9c-0.2,0.7-0.4,1.3-0.6,2c-0.8,2.1-0.1,4.1,1.2,5.8c1.1,1.5,3,3,4.9,3.2
			C1264.2,716.3,1264.7,716.1,1265.2,716.2z M1262.4,714.5c-0.6,0-1.2-0.1-1.7-0.4c-0.1,0,0-0.2,0-0.2c0.7,0,1.3,0.3,2,0.3
			c0.5,0,1,0.1,1.5,0.3c0-0.1-0.1-0.1-0.1-0.2c-0.3-0.4-0.4-1-0.7-1.4c-0.2-0.3-0.3-0.6-0.4-0.9c-0.3,0-0.6-0.1-0.9-0.2
			c-0.5-0.1-0.9,0-1.3,0c-0.9-0.1-1.7-0.4-2.6-0.6c-0.1,0-0.1-0.2,0-0.2c0.7-0.1,1.4,0.1,2.1,0.3c0.9,0.3,1.8,0.1,2.7,0.4
			c0-0.1-0.1-0.2-0.1-0.3c-0.4-0.9-0.8-1.8-1.2-2.7c-0.6-0.2-1.2-0.3-1.8-0.4c-0.6-0.1-1.3,0-1.8-0.4c0,0-0.1-0.1,0-0.1
			c0.6-0.1,1.3,0.1,1.9,0.2c0.5,0.1,1.1,0.2,1.6,0.4c-0.4-0.7-0.8-1.3-1.1-1.9c0,0,0-0.1-0.1-0.2c-0.3,0-0.6-0.1-0.9-0.2
			c-0.3-0.1-0.8-0.2-1-0.4c0-0.1,0-0.1,0-0.2c0.3-0.1,0.6,0.1,0.8,0.2c0.3,0.1,0.6,0.2,0.9,0.3c-0.3-0.6-0.6-1.4-0.4-2
			c0.3,0.6,0.6,1.3,0.9,1.9c0.1-0.2,0.1-0.3,0.2-0.4c0.1-0.2,0.2-0.5,0.4-0.7c0.1-0.2,0.1-0.4,0.3-0.6c0,0,0.1,0,0.1,0
			c0.1,0.3-0.1,0.7-0.3,0.9c-0.2,0.3-0.4,0.7-0.6,1c0.1,0.2,0.2,0.5,0.3,0.7c0.2,0.5,0.6,1,0.9,1.5c0.1-0.2,0.3-0.5,0.4-0.7
			c0.4-0.7,0.6-1.5,1.2-2.1c0.1-0.1,0.1,0,0.1,0.1c-0.2,0.6-0.5,1.1-0.8,1.7c-0.2,0.5-0.6,0.8-0.7,1.3c0.2,0.4,0.4,0.8,0.6,1.2
			c0.2,0.6,0.4,1.4,0.7,2c0.2-0.5,0.5-1,0.7-1.4c0.4-0.8,0.4-1.7,1-2.3c0,0,0.1,0,0.1,0.1c-0.3,1.4-1.1,2.6-1.7,3.9
			c0.5,0.7,0.8,1.5,1.2,2.2c0.1-0.5,0.3-1.1,0.5-1.6c0.2-0.6,0.5-1.3,1-1.7c0.1,0,0.2,0,0.1,0.1c-0.4,1.2-1,2.4-1.5,3.5
			c0.2,0.4,0.4,0.8,0.7,1.3c-0.4,0-0.6-0.3-0.7-0.6c-0.1-0.2-0.3-0.4-0.4-0.5C1263.8,714.7,1263.1,714.5,1262.4,714.5z"/>
	</g>
	<g>
		<path class="st8" d="M166.7,868.7c-0.2,0.2-0.5,0.3-0.8,0.3c-0.2,0-1.8,0-1.6,0.4c0.1,0.3,1.2,0.1,1.6,0.1c0.2,0,0.5-0.1,0.7,0
			c0.3,0.1,0.6,2,3.4,3.3c0.7,0.3,1.7,0.6,2.4,0.8c0.8,0.3,1.9,0.1,2.8,0c1-0.2,2-0.7,2.9-1.4c0.5-0.4,1-1.2,1.7-1.4
			c-0.1-0.6-0.6-1.2-1-1.6c-0.4-0.5-0.8-1-1.2-1.5c-1.1-1.7-3-2.2-5-2.2c-1.7,0.1-3.8,0.6-5,2C167.1,867.8,167,868.3,166.7,868.7z
			 M169.4,867.5c0.3-0.4,0.7-0.8,1.2-1.1c0.1,0,0.1,0.1,0.1,0.1c-0.3,0.5-0.9,0.8-1.2,1.3c-0.3,0.4-0.6,0.7-1,1c0.1,0,0.1,0,0.2,0
			c0.5,0,0.9,0.2,1.4,0.2c0.3,0,0.6,0.1,0.8,0.2c0.2-0.2,0.4-0.4,0.6-0.6c0.3-0.3,0.5-0.7,0.7-1c0.5-0.6,1.2-1.1,1.8-1.7
			c0.1-0.1,0.2,0,0.1,0.1c-0.3,0.6-0.8,1-1.3,1.4c-0.7,0.6-1,1.3-1.7,1.8c0.1,0,0.2,0,0.3,0.1c0.9,0.1,1.8,0.4,2.7,0.5
			c0.4-0.4,0.9-0.7,1.3-1.2c0.4-0.4,0.7-1,1.3-1.1c0.1,0,0.1,0,0.1,0.1c-0.2,0.5-0.8,0.9-1.1,1.3c-0.3,0.3-0.7,0.7-1.2,1
			c0.7,0.1,1.4,0.1,2,0.2c0.1,0,0.1,0,0.2,0c0.1-0.2,0.4-0.4,0.6-0.6c0.2-0.2,0.5-0.5,0.8-0.5c0.1,0,0.1,0.1,0.1,0.1
			c-0.1,0.3-0.4,0.4-0.6,0.5c-0.2,0.1-0.5,0.3-0.7,0.5c0.6,0.1,1.4,0.3,1.8,0.7c-0.6-0.1-1.3-0.2-1.9-0.3c0.1,0.1,0.2,0.3,0.2,0.4
			c0.1,0.2,0.2,0.4,0.3,0.6c0.1,0.2,0.2,0.3,0.3,0.5c0,0.1,0,0.1-0.1,0.1c-0.3-0.1-0.4-0.4-0.5-0.7c-0.1-0.3-0.3-0.6-0.4-1
			c-0.2,0-0.5-0.1-0.7-0.1c-0.5-0.1-1-0.1-1.6-0.1c0.1,0.2,0.2,0.4,0.3,0.7c0.3,0.7,0.8,1.2,0.9,2c0,0.1-0.1,0.1-0.1,0.1
			c-0.4-0.4-0.6-1-0.8-1.5c-0.2-0.4-0.3-0.9-0.6-1.2c-0.4,0-0.8-0.1-1.2-0.2c-0.6-0.2-1.2-0.5-1.9-0.5c0.3,0.4,0.5,0.8,0.7,1.3
			c0.4,0.7,1.1,1.2,1.2,2c0,0.1-0.1,0.1-0.1,0c-0.9-1-1.4-2.2-2.1-3.3c-0.8,0-1.6-0.1-2.3-0.3c0.3,0.4,0.6,0.8,0.9,1.2
			c0.3,0.5,0.7,1.1,0.8,1.7c0,0.1-0.1,0.1-0.1,0.1c-0.7-0.9-1.2-2-1.9-3c-0.4-0.1-0.9-0.1-1.3-0.2c0.2-0.2,0.5-0.3,0.8-0.3
			c0.2,0,0.4,0,0.6,0C168.5,868.4,169,868,169.4,867.5z"/>
		<path class="st8" d="M74,947c-0.1,0.1-0.2,0-0.3,0.1c-0.2,0.2-0.1,0.6-0.4,0.7c-0.6-0.7-0.7,0.6-1,0.9c-0.6-0.8-0.9,0.9-1.4,0.3
			c-0.2-0.2-0.2-0.8-0.6-0.3c-0.3,0.4-0.3,0.9-0.7,1.2c-0.5-0.2-0.5-1.1-1-0.3c-0.1-0.1-0.1-0.2-0.2-0.3c-0.3,0.2-0.2,0.6-0.4,0.9
			c-0.5-0.6-0.4,0.8-0.9,0.1c-0.2-0.2-0.3-0.7-0.6-0.4c-0.2,0.2-0.1,0.6-0.2,0.8c-0.1-0.1-0.2-0.1-0.3-0.2c-0.1,0.3,0.1,0.9-0.2,1.1
			c-0.1-0.1-0.2-0.1-0.3-0.2c-0.2,0.2-0.1,0.6-0.4,0.7c-0.2,0-0.5-0.4-0.7-0.5c-0.2,0.5-0.4,1-0.4,1.5c0,0.2,0.1,0.5,0,0.7
			c-0.1,0.2-0.3,0.2-0.3,0.4c0,0.4,0.3,0.8,0.6,1c0.4,0.2,0.5,0.9,0.9,1.2c0.4,0.3,1.9,0.8,1.8,1.2c-0.1,0.4-0.6,0.8-0.8,1.1
			c-0.2,0.4-0.6,0.7-0.9,1c-0.1,0.2-0.9,0.7-0.8,0.9c0.1,0.3,0.4,0.1,0.5,0c0.3-0.3,0.6-0.7,0.9-1c0.4-0.5,0.9-0.8,1.3-1.3
			c0.2-0.2,0.3-0.5,0.6-0.5c0.2,0,0.3,1.1,0.4,1.2c0.6,0.5,1.4,0.2,2.1,0.6c0.5,0.3,0.8,0.4,1.4,0.1c0.4-0.2,0.5-0.4,0.8-0.6
			c0.2-0.2,1.4-0.4,0.8-0.9c0.3-0.4,1.4-0.7,1.2-1.4c-0.2,0-0.4,0.1-0.5,0.1c0-0.4,0.5-0.5,0.4-0.9c-0.1,0-0.2,0-0.3,0
			c0-0.4,1.5-1.3,1-1.8c-0.2-0.2-0.6,0.1-0.8-0.1c-0.2-0.2,0-0.4,0.1-0.6c0.1-0.2,0.6-0.5,0.6-0.7c0-0.4-0.5-0.1-0.7,0
			c-0.8,0.1,0-1,0.2-1.3c0.1-0.1,0.4-0.5,0.3-0.7c-0.1-0.2-0.6,0-0.8,0c0-0.4,0.6-0.6,0.5-1c-0.2,0-0.3,0.1-0.5,0
			c0-0.3,0.3-0.5,0.5-0.8c0.3-0.4,0-0.3-0.3-0.3c0.1-0.3,0.7-0.6,0.6-1c-0.2,0-0.3,0.1-0.5,0.1c0-0.4,0.4-1,0.4-1.4
			C74.2,946.3,74.3,946.8,74,947z M73.1,949.9c-0.5,0.8-1,1.5-1.5,2.2c-0.5,0.7-0.9,1.4-1.5,2c-0.6,0.8-1.9,2-2.1,2.7
			c0.4-0.6,0.8-0.9,1.4-1.3c1-0.8,1.9-1.5,3.2-2c-0.7,0.4-1.7,1-2.4,1.5c-0.6,0.4-1.9,1.4-2.1,2.1c0.5-0.1,0.8-0.2,1.6-0.3
			c0.9-0.1,1.7-0.4,2.8-0.5c-1.4,0.3-2.9,0.9-4.4,0.9c0.6,0.2,1.2,0.4,1.7,0.6c0.5,0.2,1,0.2,1.6,0.3c-0.3,0-0.5,0-0.8,0
			c-0.4,0-0.7-0.1-1.1-0.2c-0.4-0.1-0.7-0.3-1-0.4c-0.3-0.1-0.7,0-1-0.2c-0.3-0.1-0.2-0.3-0.3-0.5c-0.1-0.3-0.3-0.5-0.5-0.8
			c-0.3-0.4-0.5-0.7-0.8-1.1c-0.2-0.4-0.7-0.8-0.8-1.3c0.7,0.9,1.6,1.7,2,2.7c0-0.7,0-1.4,0-2c0-0.4,0-0.8,0-1.2
			c0-0.5,0-1.4,0.2-1.8c-0.1,0.7,0,1.6,0,2.3c0.1,0.9-0.1,1.9,0,2.8c0.2-0.8,0.6-1.5,0.9-2.3c0.3-0.6,0.5-1.1,0.9-1.7
			c0.4-0.6,0.5-1.3,0.9-1.9c-0.2,0.9-0.7,1.7-1.1,2.5c-0.5,1-1.2,2.3-1.3,3.4c0.3-0.3,0.4-0.6,0.7-0.9c0.4-0.5,0.8-1,1.2-1.5
			c0.6-0.7,1.2-1.5,1.7-2.2c0.3-0.4,0.5-0.8,0.8-1.1C72.4,950.6,72.8,950.3,73.1,949.9c0.1-0.2,0.2-0.4,0.4-0.6
			C73.4,949.5,73.2,949.7,73.1,949.9z"/>
		<path class="st8" d="M42.3,862.3c-0.2,0.4-0.7,0.5-1.1,0.6c-0.3,0.1-2.5,0.4-2.2,0.9c0.2,0.3,1.7-0.1,2.2-0.2
			c0.3-0.1,0.7-0.2,1-0.2c0.5,0.1,1.2,2.7,5.4,3.9c1,0.3,2.5,0.4,3.5,0.6c1.2,0.2,2.7-0.3,3.8-0.7c1.4-0.4,2.7-1.5,3.7-2.5
			c0.6-0.7,1.2-1.9,2-2.4c-0.3-0.9-1.1-1.5-1.8-2.1c-0.7-0.6-1.4-1.2-2-1.8c-2-2.1-4.7-2.4-7.5-1.9c-2.4,0.5-5.2,1.7-6.5,3.9
			C42.7,861,42.6,861.8,42.3,862.3z M45.8,860c0.3-0.7,0.9-1.3,1.5-1.8c0.1-0.1,0.2,0,0.2,0.1c-0.4,0.8-1,1.3-1.4,2.1
			c-0.3,0.6-0.7,1.1-1.2,1.6c0.1,0,0.2,0,0.3,0c0.7,0,1.3,0.1,2,0c0.4,0,0.8,0,1.2,0c0.2-0.3,0.5-0.6,0.7-1c0.4-0.5,0.5-1,0.8-1.5
			c0.6-1,1.5-1.8,2.1-2.7c0.1-0.1,0.3,0,0.2,0.1c-0.2,0.9-1,1.6-1.5,2.2c-0.8,0.9-1.1,2-2,2.9c0.2,0,0.3,0,0.4,0
			c1.3,0,2.5,0.1,3.8,0.1c0.5-0.6,1.1-1.2,1.5-1.9c0.4-0.6,0.8-1.5,1.5-1.9c0.1,0,0.2,0,0.2,0.1c-0.2,0.8-0.8,1.4-1.3,2.1
			c-0.4,0.6-0.8,1.2-1.4,1.6c1,0,2-0.2,2.9-0.2c0.1,0,0.1,0,0.2,0c0.1-0.4,0.4-0.6,0.7-0.9c0.3-0.3,0.7-0.8,1.1-0.9
			c0.1,0,0.2,0,0.2,0.1c-0.1,0.4-0.4,0.6-0.7,0.8c-0.3,0.3-0.6,0.5-0.8,0.8c0.9,0,2,0.2,2.6,0.6c-0.9,0-1.8,0-2.7-0.1
			c0.1,0.2,0.3,0.3,0.4,0.5c0.2,0.3,0.4,0.5,0.6,0.8c0.2,0.2,0.4,0.4,0.5,0.7c0,0.1,0,0.2-0.1,0.1c-0.5-0.1-0.7-0.5-0.9-0.9
			c-0.3-0.4-0.6-0.8-0.8-1.2c-0.3,0-0.7,0-1.1,0c-0.7,0-1.5,0.1-2.2,0.2c0.2,0.2,0.4,0.6,0.6,0.9c0.5,0.9,1.4,1.5,1.8,2.5
			c0,0.1-0.1,0.2-0.2,0.1c-0.6-0.5-1-1.3-1.5-1.9c-0.4-0.5-0.6-1.1-1.1-1.6c-0.6,0.1-1.2,0.1-1.7,0c-0.9-0.1-1.8-0.4-2.7-0.3
			c0.5,0.5,0.9,1.1,1.3,1.6c0.7,0.9,1.8,1.4,2.2,2.5c0,0.1-0.1,0.1-0.1,0.1c-1.5-1.2-2.5-2.7-3.7-4.2c-1.1,0.1-2.2,0.1-3.3,0.2
			c0.6,0.4,1.1,1,1.6,1.5c0.6,0.6,1.3,1.4,1.4,2.2c0,0.1-0.1,0.2-0.2,0.1c-1.2-1.1-2.2-2.5-3.3-3.8c-0.6,0-1.2,0-1.8,0.1
			c0.3-0.4,0.7-0.5,1.1-0.5c0.3,0,0.6-0.1,0.9-0.2C44.8,861.5,45.4,860.9,45.8,860z"/>
		<path class="st8" d="M162,912c0.2,0.4,0,0.8-0.2,1.2c-0.1,0.3-1.1,2.3-0.6,2.4c0.4,0,0.9-1.5,1.2-2c0.1-0.3,0.2-0.7,0.5-1
			c0.4-0.4,3,0.6,6.6-2.1c0.9-0.7,1.9-1.8,2.7-2.5c0.9-0.9,1.4-2.4,1.8-3.6c0.5-1.4,0.4-3.1,0.1-4.6c-0.2-1-0.8-2.1-0.8-3.1
			c-0.9-0.3-1.9,0-2.8,0.2c-0.9,0.2-1.8,0.4-2.7,0.5c-3,0.3-4.9,2.4-6.1,5c-1.1,2.3-1.7,5.4-0.7,7.8
			C161.2,910.8,161.7,911.4,162,912z M162.2,907.7c-0.4-0.7-0.6-1.5-0.6-2.3c0-0.1,0.2-0.1,0.2-0.1c0.4,0.8,0.5,1.7,0.9,2.5
			c0.3,0.6,0.5,1.3,0.6,2c0-0.1,0.1-0.2,0.1-0.2c0.4-0.6,0.9-1.1,1.3-1.7c0.2-0.3,0.5-0.7,0.8-1c-0.1-0.4-0.3-0.8-0.4-1.2
			c-0.2-0.6-0.6-1-0.8-1.6c-0.4-1.1-0.6-2.3-1-3.4c0-0.1,0.1-0.2,0.2-0.1c0.6,0.7,0.7,1.7,0.9,2.7c0.3,1.3,1,2.1,1.2,3.4
			c0.1-0.1,0.2-0.2,0.3-0.4c0.8-1.1,1.6-2,2.4-3.1c-0.2-0.8-0.4-1.6-0.7-2.4c-0.3-0.7-0.8-1.6-0.7-2.4c0-0.1,0.1-0.2,0.2-0.1
			c0.5,0.6,0.7,1.6,0.9,2.3c0.2,0.7,0.5,1.4,0.5,2.1c0.6-0.8,1-1.7,1.6-2.5c0-0.1,0.1-0.1,0.1-0.2c-0.2-0.3-0.3-0.7-0.3-1.1
			c-0.1-0.4-0.2-1-0.1-1.4c0-0.1,0.1-0.1,0.2-0.1c0.3,0.3,0.2,0.7,0.3,1.1c0,0.4,0.1,0.8,0.2,1.2c0.6-0.7,1.3-1.5,2.1-1.8
			c-0.5,0.8-1.1,1.5-1.7,2.2c0.2,0,0.4,0,0.7,0c0.3,0,0.7,0,1,0c0.3,0,0.6-0.1,0.8,0c0.1,0,0.1,0.1,0,0.2c-0.4,0.3-0.9,0.2-1.3,0.2
			c-0.5,0-1,0-1.5-0.1c-0.2,0.3-0.4,0.6-0.7,0.9c-0.4,0.6-0.8,1.3-1.2,2c0.4,0,0.7,0,1.1,0c1.1,0.1,2.2-0.3,3.2,0.1
			c0.1,0,0.1,0.2,0,0.2c-0.8,0.2-1.7,0.1-2.5,0.1c-0.7,0-1.3-0.2-2-0.1c-0.3,0.5-0.6,1-1,1.4c-0.6,0.6-1.4,1.3-1.9,2.1
			c0.7-0.1,1.4-0.1,2.1-0.1c1.1,0,2.3-0.6,3.4-0.3c0.1,0,0.1,0.1,0,0.1c-1.9,0.5-3.8,0.4-5.7,0.5c-0.6,1-1.2,1.9-1.9,2.8
			c0.7-0.2,1.5-0.3,2.2-0.4c0.9-0.1,1.9-0.2,2.7,0.1c0.1,0,0.1,0.2,0,0.2c-1.7,0.3-3.5,0.3-5.2,0.4c-0.4,0.5-0.7,1-1.1,1.6
			c-0.2-0.4,0-0.9,0.2-1.2c0.1-0.3,0.3-0.5,0.4-0.8C162.8,909.4,162.6,908.5,162.2,907.7z"/>
		<path class="st8" d="M134,866c-0.1,0.1-0.3,0-0.5,0.2c-0.3,0.3-0.1,1-0.6,1.1c-0.9-1.1-1.1,1.1-1.7,1.5c-1.1-1.3-1.4,1.5-2.3,0.5
			c-0.3-0.4-0.4-1.3-1-0.5c-0.5,0.6-0.5,1.5-1.1,2.1c-0.9-0.3-0.8-1.8-1.6-0.5c-0.1-0.2-0.2-0.3-0.3-0.5c-0.5,0.4-0.3,1-0.6,1.5
			c-0.9-0.9-0.6,1.3-1.5,0.1c-0.3-0.4-0.6-1.2-1.1-0.7c-0.3,0.3-0.2,1-0.4,1.3c-0.2-0.1-0.3-0.2-0.5-0.3c-0.2,0.4,0.1,1.5-0.3,1.8
			c-0.1-0.1-0.3-0.2-0.5-0.3c-0.3,0.4-0.2,1.1-0.6,1.1c-0.4,0.1-0.8-0.6-1.1-0.9c-0.4,0.8-0.6,1.6-0.6,2.5c0,0.4,0.2,0.8,0,1.2
			c-0.1,0.3-0.5,0.4-0.5,0.7c-0.1,0.7,0.4,1.3,1,1.6c0.7,0.4,0.8,1.6,1.4,2.1c0.6,0.5,3.2,1.3,3,2c-0.2,0.6-1,1.3-1.4,1.9
			c-0.4,0.6-0.9,1.2-1.4,1.7c-0.2,0.3-1.5,1.2-1.4,1.5c0.1,0.5,0.6,0.2,0.8-0.1c0.5-0.5,1-1.2,1.5-1.7c0.7-0.8,1.5-1.4,2.1-2.2
			c0.3-0.4,0.5-0.9,1.1-0.8c0.3,0,0.4,1.9,0.6,2c1,0.8,2.3,0.3,3.5,1c0.8,0.5,1.4,0.6,2.3,0.2c0.6-0.3,0.8-0.6,1.3-1
			c0.4-0.3,2.4-0.7,1.4-1.5c0.5-0.6,2.4-1.2,1.9-2.3c-0.3,0-0.6,0.2-0.9,0.2c0-0.6,0.8-0.8,0.7-1.4c-0.1,0-0.3,0-0.5,0
			c0-0.7,2.5-2.1,1.6-3c-0.3-0.3-0.9,0.1-1.3-0.2c-0.3-0.3,0-0.7,0.2-1c0.2-0.3,1-0.9,1-1.2c0-0.6-0.8-0.1-1.2-0.1
			c-1.3,0.2,0-1.6,0.4-2.1c0.2-0.2,0.7-0.8,0.5-1.1c-0.2-0.3-0.9,0.1-1.3,0c0.1-0.6,1-0.9,0.9-1.6c-0.3,0-0.5,0.1-0.8,0
			c0-0.6,0.6-0.9,0.9-1.3c0.5-0.7,0-0.5-0.5-0.6c0.2-0.5,1.1-1.1,1-1.6c-0.3,0-0.6,0.2-0.9,0.2c0-0.7,0.6-1.6,0.7-2.3
			C134.5,864.8,134.6,865.6,134,866z M132.6,870.9c-0.8,1.3-1.6,2.5-2.6,3.6c-0.9,1.1-1.6,2.3-2.5,3.4c-1.1,1.3-3.1,3.4-3.4,4.5
			c0.7-0.9,1.4-1.5,2.3-2.2c1.6-1.3,3.1-2.6,5.4-3.3c-1.1,0.7-2.8,1.6-3.9,2.5c-1,0.7-3.2,2.3-3.5,3.5c0.9-0.1,1.4-0.3,2.7-0.5
			c1.4-0.2,2.9-0.7,4.7-0.8c-2.4,0.4-4.9,1.6-7.3,1.6c1,0.3,1.9,0.7,2.8,1c0.9,0.3,1.7,0.4,2.6,0.5c-0.4,0-0.8,0.1-1.3,0
			c-0.6-0.1-1.2-0.2-1.8-0.4c-0.6-0.2-1.1-0.5-1.7-0.6c-0.6-0.2-1.2-0.1-1.7-0.3c-0.4-0.1-0.4-0.4-0.5-0.8c-0.2-0.5-0.6-0.9-0.8-1.3
			c-0.4-0.7-0.9-1.1-1.3-1.8c-0.4-0.7-1.1-1.4-1.3-2.2c1.1,1.4,2.6,2.8,3.4,4.5c0.1-1.1,0-2.3,0-3.4c0-0.7-0.1-1.4,0-2.1
			c0.1-0.8,0-2.3,0.4-3c-0.1,1.2-0.1,2.7,0,3.9c0.1,1.5-0.2,3.1-0.1,4.6c0.4-1.3,1-2.5,1.5-3.8c0.4-1,0.9-1.9,1.4-2.8
			c0.6-1,0.9-2.2,1.6-3.2c-0.4,1.4-1.1,2.9-1.8,4.2c-0.9,1.7-2.1,3.8-2.2,5.7c0.4-0.4,0.7-1.1,1.1-1.5c0.7-0.8,1.4-1.7,2.1-2.5
			c0.9-1.2,2-2.5,2.9-3.7c0.4-0.6,0.8-1.3,1.3-1.9C131.4,872,132.1,871.4,132.6,870.9c0.2-0.3,0.4-0.7,0.6-1
			C133,870.2,132.8,870.5,132.6,870.9z"/>
		<path class="st8" d="M115.6,902.1c-0.3,0.2-0.7,0.1-1.1,0c-0.3-0.1-2-0.7-2-0.2c0,0.3,1.3,0.6,1.8,0.7c0.3,0.1,0.6,0.1,0.9,0.3
			c0.3,0.3-0.2,2.5,2.5,5.1c0.7,0.6,1.7,1.3,2.4,1.9c0.9,0.6,2.1,0.9,3.2,1.1c1.3,0.2,2.6,0,3.8-0.4c0.8-0.3,1.7-0.9,2.5-1
			c0.2-0.8-0.2-1.6-0.5-2.3c-0.3-0.7-0.5-1.4-0.7-2.2c-0.6-2.4-2.6-3.7-4.9-4.5c-2-0.6-4.7-0.8-6.5,0.3
			C116.4,901.3,116.1,901.9,115.6,902.1z M119.2,901.8c0.5-0.4,1.2-0.7,1.8-0.7c0.1,0,0.1,0.1,0.1,0.2c-0.6,0.4-1.3,0.6-1.9,1
			c-0.5,0.3-1,0.5-1.6,0.7c0.1,0,0.1,0,0.2,0.1c0.5,0.2,1,0.6,1.5,0.8c0.3,0.1,0.6,0.3,0.9,0.5c0.3-0.2,0.6-0.3,0.9-0.4
			c0.5-0.2,0.8-0.6,1.2-0.8c0.9-0.5,1.8-0.7,2.7-1.2c0.1-0.1,0.2,0.1,0.1,0.2c-0.6,0.6-1.4,0.8-2.1,1.1c-1,0.4-1.7,1.1-2.7,1.4
			c0.1,0.1,0.2,0.1,0.3,0.2c1,0.5,1.9,1.1,2.8,1.6c0.7-0.3,1.3-0.5,1.9-0.8c0.6-0.3,1.2-0.8,1.9-0.8c0.1,0,0.1,0.1,0.1,0.1
			c-0.5,0.5-1.2,0.7-1.8,1c-0.5,0.3-1.1,0.6-1.7,0.6c0.7,0.4,1.6,0.6,2.3,1c0.1,0,0.1,0.1,0.2,0.1c0.3-0.2,0.6-0.3,0.9-0.4
			c0.3-0.1,0.8-0.3,1.2-0.2c0.1,0,0.1,0.1,0.1,0.2c-0.2,0.3-0.6,0.3-0.9,0.4c-0.3,0.1-0.7,0.2-1,0.3c0.7,0.4,1.4,0.9,1.7,1.6
			c-0.7-0.4-1.4-0.8-2-1.1c0,0.2,0.1,0.4,0.1,0.5c0,0.3,0.1,0.6,0.1,0.9c0,0.2,0.1,0.4,0.1,0.7c0,0.1-0.1,0.1-0.2,0.1
			c-0.3-0.3-0.3-0.7-0.3-1.1c0-0.4-0.1-0.9-0.1-1.3c-0.3-0.1-0.5-0.3-0.8-0.4c-0.5-0.3-1.2-0.5-1.8-0.7c0.1,0.3,0.1,0.6,0.1,0.9
			c0,0.9,0.5,1.7,0.3,2.6c0,0.1-0.1,0.1-0.2,0c-0.2-0.6-0.2-1.4-0.4-2c-0.1-0.6,0-1.1-0.2-1.6c-0.5-0.2-0.9-0.4-1.3-0.7
			c-0.6-0.5-1.2-1-1.9-1.3c0.2,0.6,0.2,1.2,0.3,1.7c0.1,0.9,0.8,1.8,0.6,2.8c0,0.1-0.1,0.1-0.1,0c-0.6-1.5-0.7-3.1-1.1-4.7
			c-0.9-0.3-1.7-0.8-2.6-1.2c0.2,0.6,0.4,1.2,0.6,1.7c0.2,0.7,0.4,1.5,0.2,2.2c0,0.1-0.1,0.1-0.2,0c-0.4-1.3-0.6-2.8-0.9-4.2
			c-0.5-0.2-0.9-0.5-1.4-0.7c0.4-0.2,0.7-0.1,1,0c0.2,0.1,0.5,0.2,0.7,0.2C117.8,902.5,118.5,902.3,119.2,901.8z"/>
	</g>
</g>
<g id="Layer_7">
	<g>
		<rect x="735.7" y="710.9" class="st11" width="14.8" height="269.1"/>
		<polygon class="st11" points="736.9,905.4 745.5,917.4 831,856.4 822.4,844.4 		"/>
		<polygon class="st11" points="747.5,843.2 740.2,855.9 653.2,811.1 660.6,798.4 		"/>
		
			<ellipse transform="matrix(1 -3.819127e-003 3.819127e-003 1 -2.5 2.8179)" class="st13" cx="736.6" cy="656" rx="139" ry="138.8"/>
		
			<ellipse transform="matrix(1 -3.819383e-003 3.819383e-003 1 -3.1235 3.2333)" class="st14" cx="845" cy="819.4" rx="87" ry="86.9"/>
		
			<ellipse transform="matrix(1 -3.818870e-003 3.818870e-003 1 -2.9905 2.5021)" class="st14" cx="653.7" cy="784.3" rx="60.1" ry="60.1"/>
	</g>
	<g>
		<rect x="215" y="605.8" class="st11" width="15.6" height="374.2"/>
		<polygon class="st11" points="219.1,855.8 230.1,844.8 144.1,758.9 133.1,769.9 		"/>
		<g>
			<ellipse class="st8" cx="243.1" cy="516" rx="106.8" ry="106.7"/>
			<g>
				<ellipse class="st8" cx="147.3" cy="627.2" rx="95.8" ry="95.6"/>
				<ellipse class="st8" cx="273.8" cy="647.1" rx="115.2" ry="115.1"/>
			</g>
		</g>
		<ellipse class="st15" cx="96.1" cy="730.8" rx="94.2" ry="94.1"/>
	</g>
	<rect x="1092.7" y="765.2" class="st11" width="10.4" height="194"/>
	<polygon class="st11" points="1101,858.5 1095.9,867.4 1034.6,835.8 1039.7,826.9 	"/>
	
		<ellipse transform="matrix(1 -3.819127e-003 3.819127e-003 1 -2.7668 4.1808)" class="st13" cx="1093.3" cy="726.5" rx="97.9" ry="97.8"/>
	<g>
		<rect x="1283.6" y="484.1" class="st11" width="9.3" height="226.9"/>
		<g>
			<path class="st15" d="M1360.1,467c6.1,35.9-18.1,69.9-54,76c-35.9,6.1-69.9-18-76-53.9s18.1-69.9,54-76
				C1319.9,407,1354,431.1,1360.1,467z"/>
			<g>
				<path class="st15" d="M1306.6,545.7c5.5,32.1-16.2,62.6-48.4,68.1c-32.2,5.5-62.7-16.2-68.2-48.3s16.2-62.6,48.4-68.1
					C1270.6,491.9,1301.1,513.6,1306.6,545.7z"/>
				<path class="st15" d="M1397.4,542.8c6.6,38.7-19.5,75.4-58.2,81.9c-38.7,6.6-75.4-19.5-82-58.1c-6.6-38.7,19.5-75.4,58.2-81.9
					S1390.8,504.1,1397.4,542.8z"/>
			</g>
		</g>
	</g>
	
		<ellipse transform="matrix(1 -3.818870e-003 3.818870e-003 1 -3.1124 3.9582)" class="st14" cx="1034.9" cy="817" rx="42.4" ry="42.3"/>
</g>
<g id="Layer_8">
	<g>
		<path class="st16" d="M1330.3,228.5c0,12.2-9.9,22.2-22.2,22.2h-243c-12.2,0-22.2-9.9-22.2-22.2l0,0c0-12.2,9.9-22.2,22.2-22.2
			h243C1320.3,206.3,1330.3,216.2,1330.3,228.5L1330.3,228.5z"/>
		<path class="st16" d="M1181.7,254.7c0,8.7-7,15.7-15.7,15.7h-146.9c-8.7,0-15.7-7-15.7-15.7l0,0c0-8.7,7-15.7,15.7-15.7H1166
			C1174.7,239,1181.7,246,1181.7,254.7L1181.7,254.7z"/>
		<path class="st16" d="M1126.6,103.5c0,18-14.6,32.6-32.7,32.6H736c-18,0-32.7-14.6-32.7-32.6l0,0c0-18,14.6-32.6,32.7-32.6h357.9
			C1111.9,70.9,1126.6,85.5,1126.6,103.5L1126.6,103.5z"/>
		<path class="st16" d="M907.7,142.1c0,12.8-10.4,23.1-23.1,23.1H668.3c-12.8,0-23.1-10.3-23.1-23.1l0,0c0-12.8,10.4-23.1,23.1-23.1
			h216.3C897.4,119,907.7,129.4,907.7,142.1L907.7,142.1z"/>
		<path class="st16" d="M1138.1,197.4c0,8.7-7,15.7-15.7,15.7H975.5c-8.7,0-15.7-7-15.7-15.7l0,0c0-8.7,7-15.7,15.7-15.7h146.9
			C1131,181.7,1138.1,188.8,1138.1,197.4L1138.1,197.4z"/>
		<path class="st16" d="M313.2,70.3c0,8.4-6.8,15.1-15.1,15.1h-166c-8.4,0-15.1-6.8-15.1-15.1l0,0c0-8.4,6.8-15.1,15.1-15.1h166
			C306.5,55.2,313.2,61.9,313.2,70.3L313.2,70.3z"/>
		<path class="st16" d="M211.8,88.2c0,5.9-4.8,10.7-10.7,10.7H100.7c-5.9,0-10.7-4.8-10.7-10.7l0,0c0-5.9,4.8-10.7,10.7-10.7H201
			C206.9,77.5,211.8,82.3,211.8,88.2L211.8,88.2z"/>
		<path class="st16" d="M181.9,49.1c0,5.9-4.8,10.7-10.7,10.7H70.9c-5.9,0-10.7-4.8-10.7-10.7l0,0c0-5.9,4.8-10.7,10.7-10.7h100.3
			C177.1,38.4,181.9,43.2,181.9,49.1L181.9,49.1z"/>
	</g>
	<path class="st16" d="M382.5,254.4c0,11.3-9.2,20.5-20.5,20.5H123.5c-11.3,0-20.5-9.2-20.5-20.5l0,0c0-11.3,9.2-20.5,20.5-20.5H362
		C373.3,234,382.5,243.1,382.5,254.4L382.5,254.4z"/>
	<path class="st16" d="M269.8,282.3c0,7.8-6.3,14.1-14.1,14.1H82.1c-7.8,0-14.1-6.3-14.1-14.1l0,0c0-7.8,6.3-14.1,14.1-14.1h173.6
		C263.5,268.2,269.8,274.5,269.8,282.3L269.8,282.3z"/>
	<path class="st16" d="M566.7,177.7c0,7.1-5.8,12.9-13,12.9H343.7c-7.2,0-13-5.8-13-12.9l0,0c0-7.1,5.8-12.9,13-12.9h210.1
		C560.9,164.8,566.7,170.6,566.7,177.7L566.7,177.7z"/>
	<path class="st16" d="M434.8,156.8c0,5.3-4.3,9.5-9.6,9.5h-155c-5.3,0-9.6-4.3-9.6-9.5l0,0c0-5.3,4.3-9.5,9.6-9.5h155
		C430.5,147.3,434.8,151.5,434.8,156.8L434.8,156.8z"/>
</g>
</svg>
